<svg width="256" height="256" viewBox="0 0 256 256" fill="none" xmlns="http://www.w3.org/2000/svg">
<g clip-path="url(#clip0_211_48)">
<path d="M129.27 142.19L43.9498 95.37C43.5996 95.1759 43.205 95.0761 42.8047 95.0804C42.4043 95.0847 42.012 95.193 41.6661 95.3947C41.3203 95.5964 41.0327 95.8845 40.8318 96.2308C40.6308 96.5771 40.5233 96.9696 40.5198 97.37C40.1098 115.37 38.5198 190.92 40.6098 193.37C43.9198 197.25 125.69 244.53 129.28 244.53C132.87 244.53 213.81 195.77 217.95 193.37C221.61 191.26 218.81 115.17 218.1 97.29C218.082 96.8968 217.964 96.5146 217.758 96.1794C217.551 95.8442 217.263 95.567 216.92 95.374C216.577 95.181 216.19 95.0784 215.797 95.0759C215.403 95.0735 215.015 95.1712 214.67 95.36L129.27 142.19Z" fill="#191919"/>
<path d="M129.27 252.5C126.8 252.5 124.46 252.5 80.83 227.3C37.91 202.51 35.44 199.62 34.51 198.53C32.13 195.73 31.23 194.68 31.62 151.08C31.81 129.61 32.31 106.21 32.52 97.15C32.5598 95.378 33.0558 93.6463 33.96 92.1218C34.8642 90.5974 36.1461 89.3319 37.682 88.4473C39.2179 87.5628 40.9559 87.0891 42.7283 87.072C44.5006 87.055 46.2474 87.4951 47.8 88.35L129.28 133.06L210.82 88.32C212.364 87.4745 214.098 87.0381 215.859 87.052C217.619 87.066 219.346 87.53 220.877 88.3999C222.407 89.2698 223.689 90.5166 224.602 92.0219C225.514 93.5272 226.027 95.2409 226.09 97C226.45 106.09 227.32 129.57 227.66 151.15C227.85 163.39 227.83 173.15 227.66 180.26C227.28 192.42 226.66 197.63 222 200.33C221.33 200.72 218.6 202.33 214.5 204.8C134.48 252.5 132.63 252.5 129.27 252.5ZM48 188.91C59.93 197.03 116.16 229.52 129.26 235.91C137.26 231.91 163.15 216.81 206.26 191.05L211.18 188.11C212.18 178.95 211.95 147.35 210.47 106.81L133.12 149.2C131.94 149.848 130.616 150.187 129.27 150.187C127.924 150.187 126.6 149.848 125.42 149.2L48.31 106.89C47.43 148.63 47.3 179.89 48 188.91Z" fill="#191919"/>
<path d="M40.6001 91.49L129.27 44.2L217.94 91.49L129.27 140.14L40.6001 91.49Z" fill="white"/>
<path d="M130.52 41.08V137.02L41.8501 88.36L130.52 41.08Z" fill="#E6E6E6"/>
<path d="M129.27 142.19L40.5998 93.53C40.5998 93.53 38.2198 190.53 40.5998 193.34C43.9098 197.22 125.68 244.5 129.27 244.5C132.86 244.5 213.8 195.74 217.94 193.34C222.08 190.94 217.94 93.53 217.94 93.53L129.27 142.19Z" fill="#03A9F4"/>
<path d="M129.27 142.19C128.27 144.25 127.27 245 129.27 244.5C135.62 242.94 214.59 197.57 218.27 192.75C219.85 190.66 220.66 94.82 217.96 93.53C215.26 92.24 130.3 140.13 129.27 142.19Z" fill="white" fill-opacity="0.376471"/>
<path d="M217.42 88C222.01 85.47 246.88 71.67 245.57 70.91C244.26 70.15 157.9 24.97 155.72 24.31C153.72 23.7 131.24 38.41 127.59 40.81C123.83 38.2 96.7699 19.57 93.6899 21.29C90.3799 23.09 10.2999 67.77 7.4299 69.43C4.78989 71 34.2199 85.79 38.7699 88.07C34.5199 90.22 9.07989 102.66 10.6499 103.56C12.2199 104.46 94.4699 153 98.8699 153.48C101.7 153.79 124.67 139.24 127.69 137.24C131.07 139.48 158.69 157.72 161.45 156.16L248.58 106.16C250.19 105.28 222.66 90.72 217.42 88ZM127.69 136.86L39.9399 88.05L127.53 41.33L215.84 87.91L127.69 136.86Z" fill="#191919"/>
<path d="M161.14 164.31C157.14 164.31 151.67 161.63 140.67 154.98C135.88 152.08 131.03 148.98 127.67 146.78C124.8 148.58 121.03 150.92 117.34 153.11C103.93 161 101 161.76 98 161.44C95.44 161.16 92.26 160.82 8.63003 111.66L6.63003 110.49C5.35698 109.756 4.30699 108.69 3.59199 107.406C2.87699 106.123 2.52378 104.669 2.57003 103.2C2.74003 97.68 7.18003 95.33 16.91 90.2C18.29 89.47 19.73 88.72 21.16 87.99L17.58 86C3.32003 78.24 -0.56997 75.36 -0.72997 69.94C-0.773133 68.4386 -0.408072 66.9537 0.326296 65.6434C1.06067 64.3332 2.13681 63.2468 3.44003 62.5C5.64003 61.23 50.22 36.35 87.23 15.7L89.8 14.27C94.96 11.39 100.8 13.95 114.64 22.61C119.45 25.61 124.25 28.81 127.7 31.15C152.6 14.95 154.49 15.53 158.07 16.63C161.49 17.63 248.87 63.54 249.58 63.96C250.808 64.6805 251.826 65.7089 252.535 66.9436C253.243 68.1782 253.617 69.5765 253.62 71C253.57 76.43 250.1 78.44 237.21 85.93L234 87.79L238.77 90.42C253.1 98.42 256.49 100.49 256.59 105.93C256.618 107.384 256.255 108.82 255.539 110.086C254.823 111.353 253.781 112.404 252.52 113.13L173.37 158.51L165.37 163.09C164.095 163.87 162.634 164.291 161.14 164.31ZM142.89 137.55C150.44 142.29 156.89 146.04 160.26 147.63L165.47 144.63L233.37 105.7C229.06 103.27 223.43 100.19 216.67 96.6L142.89 137.55ZM26.18 103.4C70.43 129.33 92.36 141.61 99.12 144.94C102.03 143.52 107.27 140.48 112.3 137.43L39.2 96.8C33.69 99.55 29.44 101.71 26.18 103.4ZM56.67 88.2L127.67 127.68L199 88.1L127.52 50.4L56.67 88.2ZM22.22 70.32C26.8 72.89 32.77 76.06 39.22 79.32L112.5 40.24C106.84 36.4096 100.971 32.8975 94.92 29.72C54.29 52.39 33.08 64.24 22.21 70.32H22.22ZM142.92 40.41L216.6 79.27C221.6 76.49 226.18 73.88 229.94 71.68C209 60.68 166.66 38.68 155.35 32.97C152.73 34.38 148.27 37 142.92 40.41Z" fill="#191919"/>
<path d="M218.42 88C218.5 86.7 246.88 71.67 245.57 70.91C244.26 70.15 157.9 24.97 155.72 24.31C153.72 23.7 128.18 40.74 127.59 40.81C127 40.88 96.7602 19.53 93.6902 21.25C90.3802 23.09 10.3002 67.77 7.43021 69.43C4.79021 71 38.7002 87.23 38.7702 88.07C38.8402 88.91 9.08021 102.66 10.6402 103.56C12.2002 104.46 94.4702 153 98.8702 153.48C101.7 153.79 126.79 137.24 127.69 137.24C128.59 137.24 158.69 157.72 161.45 156.16L248.58 106.16C250.19 105.28 218.34 89.27 218.42 88ZM127.69 136.86C126.69 136.78 39.9702 88.72 39.9502 88.08C39.9302 87.44 126.95 41.45 127.54 41.36C128.13 41.27 215.86 86.69 215.85 87.94C215.84 89.19 128.7 136.91 127.69 136.83V136.86Z" fill="white"/>
<path d="M72.15 187.68L71.71 152C71.71 149.77 73.76 149.3 75.42 151.18L100.86 180C102.45 181.81 102.48 184.47 100.92 184.89L75.92 191.7C74.29 192.19 72.18 189.91 72.15 187.68Z" fill="white"/>
<path d="M128.67 142.67C128 159.84 127.67 220.34 129.28 244.5Z" fill="white" fill-opacity="0.376471"/>
<path d="M129.27 248.5C128.254 248.502 127.276 248.118 126.533 247.425C125.79 246.733 125.339 245.783 125.27 244.77C123.63 220.09 124 159.55 124.66 142.52C124.68 141.995 124.804 141.479 125.024 141.001C125.244 140.524 125.555 140.094 125.941 139.737C126.327 139.38 126.779 139.102 127.272 138.92C127.766 138.738 128.29 138.655 128.815 138.675C129.34 138.695 129.856 138.819 130.334 139.039C130.811 139.259 131.241 139.57 131.598 139.956C131.955 140.342 132.233 140.794 132.415 141.287C132.597 141.781 132.68 142.305 132.66 142.83C132.02 159.27 131.66 220.26 133.26 244.24C133.295 244.765 133.227 245.291 133.058 245.79C132.89 246.288 132.625 246.748 132.278 247.144C131.932 247.539 131.511 247.863 131.039 248.095C130.568 248.328 130.055 248.466 129.53 248.5H129.27Z" fill="#191919"/>
</g>
<defs>
<clipPath id="clip0_211_48">
<rect width="256" height="256" fill="white"/>
</clipPath>
</defs>
</svg>
