<svg width="40" height="28" viewBox="0 0 40 28" fill="none" xmlns="http://www.w3.org/2000/svg">
<g clip-path="url(#clip0_106_731)">
<path d="M39.9185 13.0814C39.9044 13.0415 39.8845 13.0025 39.8602 12.9666C39.8358 12.9308 39.8071 12.898 39.7753 12.8704C39.7437 12.8429 39.709 12.8205 39.6728 12.8055L23.0568 5.91229C23.0326 5.90204 23.0079 5.88889 22.9828 5.87254C22.9577 5.85618 22.9322 5.83658 22.906 5.81329C22.8798 5.79001 22.8529 5.76317 22.8251 5.7323C22.7974 5.70144 22.7689 5.66654 22.7395 5.62732C22.6956 5.56896 22.6509 5.50107 22.6061 5.4247C22.5612 5.34833 22.5162 5.26349 22.472 5.17131C22.4277 5.07912 22.3841 4.97959 22.3421 4.87378C22.3001 4.7679 22.2596 4.65587 22.2215 4.53863C22.1832 4.4212 22.1469 4.29868 22.1133 4.17213C22.0798 4.04552 22.0489 3.91477 22.021 3.78099C21.9931 3.6471 21.9685 3.51012 21.9472 3.37107C21.926 3.23185 21.9084 3.09055 21.8948 2.94818C21.8764 2.75812 21.8661 2.57541 21.8633 2.402C21.8604 2.22823 21.865 2.0637 21.8765 1.9102C21.8878 1.75646 21.9059 1.61379 21.9301 1.48405C21.9543 1.35412 21.9845 1.23711 22.02 1.13497C22.0376 1.0839 22.0566 1.03663 22.0767 0.993258C22.0967 0.94989 22.1178 0.910433 22.1397 0.875004C22.1616 0.839516 22.1844 0.808116 22.2077 0.780863C22.231 0.75361 22.2549 0.730445 22.2791 0.711546C22.2834 0.708169 22.2878 0.70491 22.2922 0.70177C22.2966 0.69863 22.301 0.695609 22.3053 0.692824C22.3097 0.689921 22.3141 0.687196 22.3184 0.684589C22.3228 0.681982 22.3271 0.679494 22.3315 0.677124C15.1424 4.58525 7.95451 8.49338 0.766008 12.4012C0.762282 12.4032 0.758613 12.4054 0.754886 12.4077C0.75116 12.41 0.747491 12.4124 0.743823 12.415C0.740154 12.4175 0.736486 12.4202 0.732817 12.423C0.729207 12.4259 0.725538 12.4288 0.72187 12.4319C0.701839 12.4492 0.682564 12.4711 0.664338 12.4974C0.646112 12.5237 0.628876 12.5545 0.612863 12.5896C0.596908 12.6246 0.582118 12.664 0.568783 12.7077C0.555448 12.7514 0.543569 12.7993 0.533379 12.8514C0.512707 12.9555 0.498616 13.0758 0.491686 13.2105C0.484699 13.345 0.484815 13.4937 0.492385 13.6548C0.499955 13.8157 0.515037 13.9889 0.537979 14.1728C0.560922 14.3562 0.591784 14.5501 0.630973 14.7527C0.660146 14.9044 0.692929 15.0555 0.728683 15.2046C0.764436 15.3537 0.803159 15.5009 0.844444 15.6453C0.885671 15.7894 0.929344 15.9306 0.974996 16.0679C1.02059 16.205 1.06822 16.3382 1.11719 16.4663C1.16587 16.5941 1.21619 16.7168 1.26714 16.833C1.31809 16.9492 1.36968 17.059 1.4211 17.1612C1.47251 17.2633 1.52376 17.3577 1.57383 17.4432C1.62397 17.5288 1.673 17.6054 1.72005 17.6719C1.75173 17.7165 1.78195 17.7566 1.81101 17.7922C1.84006 17.8279 1.8679 17.8593 1.89468 17.8867C1.92147 17.9142 1.94732 17.9378 1.9723 17.9579C1.99728 17.978 2.02139 17.9946 2.04492 18.0083L18.333 27.2956C18.369 27.3161 18.4043 27.3442 18.4373 27.3774C18.4703 27.4107 18.5012 27.4491 18.5282 27.4902C18.5551 27.5313 18.5782 27.5752 18.5959 27.6193C18.6135 27.6634 18.6258 27.7078 18.6309 27.7499C18.6334 27.7711 18.6341 27.7908 18.6331 27.8088C18.632 27.8268 18.6292 27.8431 18.6248 27.8576C18.6203 27.8721 18.6143 27.8848 18.6068 27.8957C18.5994 27.9066 18.5904 27.9155 18.5802 27.9225C25.6767 23.0729 32.7732 18.2228 39.8692 13.373C39.8808 13.365 39.8913 13.3553 39.9005 13.344C39.9096 13.3327 39.9175 13.3197 39.9238 13.3052C39.9301 13.2908 39.9348 13.2748 39.938 13.2575C39.9411 13.2402 39.9425 13.2215 39.942 13.2015C39.9412 13.1619 39.933 13.121 39.9189 13.0811L39.9185 13.0814Z" fill="#1E1A67"/>
<path d="M17.3037 23.3996C17.3338 23.6401 17.3731 23.88 17.4206 24.117C17.468 24.3536 17.5235 24.5874 17.5863 24.8163C17.649 25.0447 17.719 25.2684 17.7952 25.4848C17.8713 25.7011 17.9538 25.9103 18.0418 26.1103C18.0676 26.1687 18.0939 26.2264 18.1206 26.2834C18.1473 26.3403 18.1746 26.3963 18.2023 26.4516C18.2301 26.5069 18.2583 26.5613 18.287 26.6148C18.3158 26.6684 18.345 26.721 18.3749 26.7728L2.4495 17.7598C2.4258 17.7462 2.40152 17.7296 2.37637 17.7094C2.35121 17.6893 2.3253 17.6657 2.29834 17.6382C2.27138 17.6106 2.24343 17.5792 2.21425 17.5434C2.18508 17.5076 2.15474 17.4676 2.12295 17.4227C2.07567 17.3562 2.02652 17.2793 1.97621 17.1935C1.9259 17.1077 1.8746 17.013 1.82307 16.9106C1.77153 16.8081 1.71988 16.698 1.66887 16.5814C1.61786 16.4647 1.56761 16.3416 1.51887 16.2134C1.4699 16.0849 1.42238 15.9512 1.37685 15.8136C1.33125 15.6758 1.2877 15.534 1.24665 15.3893C1.20553 15.2445 1.16699 15.0968 1.13141 14.9471C1.09589 14.7973 1.06334 14.6457 1.03445 14.4934C0.995615 14.2899 0.965219 14.0952 0.942743 13.911C0.920207 13.7264 0.90565 13.5524 0.898604 13.3908C0.8915 13.2289 0.891966 13.0795 0.899536 12.9443C0.907047 12.8089 0.921663 12.688 0.942975 12.5835C0.953457 12.5311 0.965627 12.4829 0.979253 12.439C0.992879 12.3951 1.00796 12.3554 1.02421 12.3202C1.04051 12.2849 1.05804 12.2539 1.0765 12.2274C1.09501 12.201 1.11452 12.1789 1.13479 12.1615C1.1554 12.144 1.17636 12.1308 1.19767 12.1217C1.21899 12.1126 1.24065 12.1075 1.26272 12.1062C1.28484 12.1049 1.30738 12.1074 1.33032 12.1133C1.35332 12.1193 1.37679 12.1287 1.40084 12.1413L17.6377 20.7195C17.5986 20.7673 17.5625 20.8211 17.5295 20.8805C17.4965 20.9399 17.4663 21.005 17.439 21.0751C17.4118 21.1452 17.3874 21.2204 17.3657 21.3005C17.344 21.3805 17.3251 21.4652 17.3087 21.5543C17.2864 21.6776 17.2693 21.8096 17.2576 21.9495C17.2459 22.0892 17.2396 22.2368 17.2389 22.3916C17.2382 22.5462 17.2431 22.708 17.2538 22.8764C17.2645 23.0444 17.281 23.2191 17.3035 23.3997L17.3037 23.3996Z" fill="#3F973E"/>
<path d="M17.3037 23.3996C17.3338 23.6401 17.3731 23.88 17.4206 24.117C17.468 24.3536 17.5235 24.5874 17.5863 24.8163C17.649 25.0447 17.719 25.2684 17.7952 25.4848C17.8713 25.7011 17.9538 25.9103 18.0418 26.1103C18.0676 26.1687 18.0939 26.2264 18.1206 26.2834C18.1473 26.3403 18.1746 26.3963 18.2023 26.4516C18.2301 26.5069 18.2583 26.5613 18.287 26.6148C18.3158 26.6684 18.345 26.721 18.3749 26.7728L2.4495 17.7598C2.4258 17.7462 2.40152 17.7296 2.37637 17.7094C2.35121 17.6893 2.3253 17.6657 2.29834 17.6382C2.27138 17.6106 2.24343 17.5792 2.21425 17.5434C2.18508 17.5076 2.15474 17.4676 2.12295 17.4227C2.07567 17.3562 2.02652 17.2793 1.97621 17.1935C1.9259 17.1077 1.8746 17.013 1.82307 16.9106C1.77153 16.8081 1.71988 16.698 1.66887 16.5814C1.61786 16.4647 1.56761 16.3416 1.51887 16.2134C1.4699 16.0849 1.42238 15.9512 1.37685 15.8136C1.33125 15.6758 1.2877 15.534 1.24665 15.3893C1.20553 15.2445 1.16699 15.0968 1.13141 14.9471C1.09589 14.7973 1.06334 14.6457 1.03445 14.4934C0.995615 14.2899 0.965219 14.0952 0.942743 13.911C0.920207 13.7264 0.90565 13.5524 0.898604 13.3908C0.8915 13.2289 0.891966 13.0795 0.899536 12.9443C0.907047 12.8089 0.921663 12.688 0.942975 12.5835C0.953457 12.5311 0.965627 12.4829 0.979253 12.439C0.992879 12.3951 1.00796 12.3554 1.02421 12.3202C1.04051 12.2849 1.05804 12.2539 1.0765 12.2274C1.09501 12.201 1.11452 12.1789 1.13479 12.1615C1.1554 12.144 1.17636 12.1308 1.19767 12.1217C1.21899 12.1126 1.24065 12.1075 1.26272 12.1062C1.28484 12.1049 1.30738 12.1074 1.33032 12.1133C1.35332 12.1193 1.37679 12.1287 1.40084 12.1413L17.6377 20.7195C17.5986 20.7673 17.5625 20.8211 17.5295 20.8805C17.4965 20.9399 17.4663 21.005 17.439 21.0751C17.4118 21.1452 17.3874 21.2204 17.3657 21.3005C17.344 21.3805 17.3251 21.4652 17.3087 21.5543C17.2864 21.6776 17.2693 21.8096 17.2576 21.9495C17.2459 22.0892 17.2396 22.2368 17.2389 22.3916C17.2382 22.5462 17.2431 22.708 17.2538 22.8764C17.2645 23.0444 17.281 23.2191 17.3035 23.3997L17.3037 23.3996Z" fill="white"/>
<path d="M22.0459 0.899611C22.0254 0.89185 22.0052 0.886044 21.985 0.882489C21.9648 0.878934 21.9448 0.877512 21.9247 0.87846C21.9046 0.879408 21.8847 0.882667 21.8646 0.888473C21.8447 0.894279 21.8246 0.902514 21.8045 0.913474C14.9293 4.65252 8.05467 8.39144 1.17944 12.1304C1.1968 12.121 1.21438 12.1144 1.2322 12.1104C1.25008 12.1064 1.26819 12.105 1.28659 12.1061C1.30499 12.1073 1.32374 12.1108 1.34278 12.1167C1.36182 12.1226 1.38121 12.1308 1.40095 12.1411L17.6378 20.7193L38.6216 7.27531L22.0458 0.899907L22.0459 0.899611Z" fill="#3F973E"/>
<path d="M38.6992 12.8225C38.6741 12.7747 38.6496 12.7261 38.6259 12.6765C38.6021 12.627 38.5788 12.5766 38.5563 12.5254C38.5337 12.4742 38.5117 12.4221 38.4903 12.3693C38.4174 12.1885 38.3513 11.9983 38.2926 11.8005C38.2339 11.6027 38.1827 11.3972 38.1397 11.1863C38.0967 10.9751 38.0619 10.7582 38.0362 10.5378C38.0103 10.3171 37.9936 10.0927 37.9865 9.86658C37.9813 9.69691 37.982 9.53214 37.9882 9.37307C37.9943 9.21376 38.0061 9.06002 38.023 8.91255C38.0399 8.76486 38.062 8.6235 38.0891 8.48907C38.1161 8.3544 38.1482 8.22679 38.1848 8.10676C38.2115 8.02002 38.2405 7.9372 38.2719 7.85858C38.3033 7.77984 38.3371 7.70543 38.3734 7.63558C38.4097 7.56567 38.4485 7.50038 38.4899 7.44013C38.5312 7.37976 38.5752 7.32448 38.6217 7.27454L17.6379 20.7185C17.5988 20.7663 17.5627 20.8202 17.5296 20.8796C17.4966 20.939 17.4665 21.004 17.4392 21.0742C17.412 21.1443 17.3876 21.2195 17.3658 21.2996C17.3442 21.3796 17.3253 21.4643 17.3089 21.5534C17.2866 21.6767 17.2695 21.8087 17.2578 21.9486C17.2461 22.0882 17.2398 22.2359 17.2391 22.3907C17.2384 22.5452 17.2433 22.7071 17.254 22.8755C17.2647 23.0436 17.2812 23.2183 17.3037 23.3988C17.3339 23.6394 17.3732 23.8793 17.4206 24.1162C17.468 24.3529 17.5236 24.5867 17.5864 24.8155C17.6491 25.044 17.719 25.2676 17.7952 25.484C17.8714 25.7003 17.9539 25.9095 18.0419 26.1096C18.0677 26.168 18.094 26.2257 18.1207 26.2826C18.1474 26.3395 18.1747 26.3955 18.2024 26.4508C18.2302 26.5061 18.2583 26.5605 18.2871 26.614C18.3159 26.6676 18.3451 26.7203 18.3749 26.772L38.7764 12.9631C38.7501 12.9171 38.7244 12.8702 38.6993 12.8225L38.6992 12.8225Z" fill="#E2E3E4"/>
<path d="M39.774 6.82092C39.7595 6.7795 39.739 6.73934 39.7141 6.70266C39.6891 6.66599 39.6595 6.63281 39.627 6.60526C39.5945 6.57771 39.5589 6.55585 39.5218 6.54181L22.5174 0.103013C22.4728 0.0861277 22.4294 0.0743971 22.3873 0.0673468C22.3451 0.0603559 22.3043 0.0580453 22.2649 0.0601189C22.2254 0.0621925 22.1875 0.0686502 22.151 0.0790182C22.1146 0.0893862 22.0797 0.103724 22.0465 0.121675C14.844 4.00847 7.64096 7.89527 0.438477 11.7818C0.466893 11.7664 0.497347 11.7551 0.529607 11.748C0.561866 11.741 0.596105 11.7383 0.63215 11.7405C0.668194 11.7426 0.706102 11.7494 0.745699 11.7615C0.785353 11.7735 0.826697 11.7907 0.869729 11.8134L17.5096 20.609C17.5464 20.6285 17.5826 20.6561 17.6165 20.6894C17.6505 20.7227 17.6822 20.7617 17.7099 20.8039C17.7377 20.8461 17.7615 20.8914 17.7797 20.9375C17.798 20.9834 17.8107 21.0301 17.8161 21.0748C17.8191 21.0988 17.8198 21.1211 17.8185 21.1414C17.8171 21.1617 17.8138 21.1801 17.8086 21.1965C17.8034 21.2129 17.7965 21.2272 17.7878 21.2393C17.7792 21.2514 17.7688 21.2613 17.757 21.2689C25.076 16.5584 32.3949 11.8482 39.7139 7.13823C39.7272 7.12964 39.7393 7.11898 39.7498 7.10648C39.7604 7.09398 39.7694 7.07952 39.7767 7.06335C39.784 7.04717 39.7896 7.02934 39.7931 7.00991C39.7967 6.99048 39.7984 6.9695 39.7979 6.94711C39.797 6.90528 39.7885 6.86257 39.774 6.82109L39.774 6.82092Z" fill="#1E1A67"/>
<path d="M0.869841 11.8136L17.5097 20.6091C17.5465 20.6286 17.5827 20.6562 17.6166 20.6895C17.6506 20.7228 17.6823 20.7619 17.71 20.8041C17.7378 20.8462 17.7616 20.8916 17.7799 20.9376C17.7981 20.9836 17.8108 21.0302 17.8163 21.075C17.8217 21.1198 17.8195 21.1585 17.8107 21.19C17.8019 21.2216 17.7866 21.2461 17.7661 21.2626C17.7455 21.279 17.7197 21.2874 17.6898 21.2867C17.66 21.2861 17.6261 21.2765 17.5893 21.2569L0.98502 12.4128C0.961204 12.4001 0.937854 12.3907 0.915086 12.3847C0.892318 12.3788 0.869958 12.3762 0.848063 12.3775C0.826227 12.3787 0.80474 12.3837 0.783719 12.3927C0.762639 12.4017 0.741968 12.4147 0.721587 12.4321C0.701556 12.4494 0.682282 12.4713 0.664056 12.4976C0.64583 12.5239 0.628594 12.5547 0.612581 12.5897C0.596625 12.6248 0.581835 12.6642 0.5685 12.7079C0.555166 12.7516 0.543287 12.7995 0.533096 12.8516C0.512425 12.9556 0.498333 13.076 0.491404 13.2107C0.484416 13.3452 0.484533 13.4939 0.492102 13.655C0.499672 13.8159 0.514754 13.9891 0.537697 14.1729C0.560639 14.3564 0.591501 14.5503 0.63069 14.7529C0.659863 14.9046 0.692647 15.0556 0.7284 15.2048C0.764153 15.3539 0.802876 15.5011 0.844162 15.6454C0.885389 15.7896 0.929061 15.9308 0.974714 16.0681C1.02031 16.2052 1.06794 16.3384 1.11691 16.4665C1.16559 16.5943 1.2159 16.717 1.26685 16.8332C1.31781 16.9494 1.3694 17.0591 1.42081 17.1613C1.47223 17.2634 1.52347 17.3579 1.57355 17.4434C1.62369 17.529 1.67272 17.6056 1.71977 17.672C1.75144 17.7167 1.78167 17.7568 1.81072 17.7924C1.83978 17.8281 1.86761 17.8594 1.8944 17.8869C1.92119 17.9144 1.94704 17.9379 1.97202 17.9581C1.997 17.9782 2.02111 17.9948 2.04463 18.0084L18.3328 27.2958C18.3687 27.3163 18.404 27.3443 18.437 27.3776C18.4701 27.4109 18.5009 27.4493 18.5279 27.4904C18.5548 27.5314 18.5779 27.5753 18.5956 27.6195C18.6133 27.6636 18.6255 27.7079 18.6306 27.7501C18.6357 27.7923 18.6333 27.8283 18.6246 27.8572C18.6159 27.8862 18.6008 27.9081 18.5807 27.9222C18.5606 27.9363 18.5352 27.9425 18.5061 27.9401C18.4769 27.9376 18.4437 27.9265 18.4079 27.9059L2.15236 18.5754C2.10013 18.5454 2.04755 18.5086 1.99508 18.4661C1.94267 18.4235 1.89032 18.3751 1.8385 18.322C1.78673 18.2688 1.73549 18.2109 1.68518 18.1491C1.63493 18.0874 1.58561 18.0218 1.53768 17.9533C1.48929 17.8845 1.44189 17.8126 1.39543 17.7378C1.34896 17.663 1.30336 17.5854 1.2587 17.5051C1.21398 17.4249 1.17019 17.342 1.12728 17.2569C1.08436 17.1716 1.04226 17.0839 1.00103 16.9942C0.918813 16.8146 0.839737 16.6259 0.764736 16.4303C0.689678 16.2345 0.618637 16.0316 0.552488 15.8235C0.48628 15.6152 0.425022 15.4018 0.36947 15.1851C0.313861 14.9681 0.263957 14.7477 0.220809 14.5263C0.18855 14.36 0.16124 14.1988 0.138705 14.0433C0.116169 13.8876 0.0984675 13.7374 0.0854822 13.5937C0.0724969 13.4497 0.0642865 13.3121 0.0606762 13.1815C0.0570659 13.0507 0.0581723 12.9268 0.0638206 12.8107C0.0698183 12.6946 0.0801251 12.5859 0.0951484 12.4855C0.110172 12.385 0.129912 12.2929 0.154601 12.2101C0.179349 12.1273 0.209046 12.0538 0.244101 11.9907C0.279214 11.9275 0.319625 11.8748 0.365685 11.8334C0.39614 11.806 0.429622 11.7841 0.466074 11.7682C0.502526 11.7524 0.541948 11.7429 0.584165 11.7401C0.62644 11.7375 0.671452 11.7417 0.719142 11.7536C0.766833 11.7656 0.817202 11.7852 0.870133 11.8131L0.869841 11.8136Z" fill="#2A258E"/>
</g>
<defs>
<clipPath id="clip0_106_731">
<rect width="40" height="28" fill="white"/>
</clipPath>
</defs>
</svg>
