<svg width="14" height="14" viewBox="0 0 14 14" fill="none" xmlns="http://www.w3.org/2000/svg">
<path d="M6.55464 11.542C6.10895 11.0187 5.36499 10.459 4.64448 10.1049C3.91696 9.7473 3.22593 9.5487 2.44136 9.4719C2.28667 9.4569 2.15842 9.4429 2.15637 9.4409C2.15437 9.4409 2.15837 7.8258 2.16637 5.8563L2.17957 2.2755L2.32241 2.2895C3.19949 2.3765 4.17842 2.7079 4.9191 3.1698C5.55743 3.5678 6.21659 4.1824 6.63684 4.7713L6.7426 4.9195V8.3209C6.7426 10.1916 6.7346 11.7219 6.725 11.7216C6.715 11.7213 6.63846 11.6404 6.55464 11.542ZM7.2812 8.3123V4.8967L7.48544 4.6238C7.74621 4.2754 8.27073 3.7505 8.61756 3.491C9.5447 2.7971 10.5504 2.405 11.705 2.287L11.8515 2.272V5.8578V9.4437L11.6816 9.4597C10.0739 9.6093 8.68008 10.2726 7.58988 11.4068L7.2812 11.728V8.3123ZM8.2773 11.4958C8.90831 10.9038 9.74365 10.4334 10.5828 10.1973C11.0219 10.0738 11.5929 9.9876 11.9719 9.9876C12.1707 9.9876 12.2809 9.9446 12.3431 9.8425C12.3899 9.7655 12.3904 9.7324 12.3905 6.8268L12.3906 3.8886L12.4785 3.9046C12.5268 3.9146 12.6639 3.9526 12.7832 3.9906L13 4.0596V7.7265C13 9.7433 12.992 11.3934 12.9821 11.3934C12.9721 11.3934 12.8272 11.3624 12.6598 11.3244C11.9984 11.1754 11.4536 11.1242 10.7383 11.1435C9.87055 11.1675 9.19618 11.2885 8.39452 11.5655L8.08983 11.6708L8.2773 11.4958ZM5.60542 11.5528C5.2725 11.4336 4.72268 11.2931 4.35151 11.2325C3.84683 11.1505 3.49865 11.1287 2.88011 11.1425C2.26553 11.1555 1.89379 11.1985 1.38667 11.3136C1.24487 11.3456 1.09985 11.3786 1.0644 11.3856L1 11.3996L1.00011 7.7229L1.00023 4.0461L1.27552 3.9661C1.42692 3.9221 1.56399 3.8811 1.5801 3.8761C1.6034 3.8661 1.6094 4.4651 1.6094 6.811C1.6094 10.0167 1.6024 9.838 1.73918 9.9279C1.78678 9.9589 1.88568 9.9729 2.16811 9.9899C3.29057 10.0539 4.35563 10.4308 5.22513 11.0721C5.41263 11.2104 5.86262 11.5902 5.88841 11.6319C5.90641 11.6609 5.89441 11.6579 5.60549 11.5539L5.60542 11.5528Z" fill="#100E35"/>
</svg>
