<svg width="650" height="433" viewBox="0 0 650 433" fill="none" xmlns="http://www.w3.org/2000/svg">
<path d="M532.186 274.013C530.644 273.856 530.323 272.044 531.729 271.469C536.69 269.439 539.339 267.309 539.339 265.113C539.339 262.977 536.835 260.903 532.134 258.924C530.749 258.341 531.069 256.384 532.603 256.395C582.986 256.745 602.216 257.58 594.691 247.964C587.35 238.582 498.257 225.565 380.331 225.565C262.406 225.565 198.882 229.371 198.882 241.281C198.882 242.533 199.952 243.76 201.982 244.954C144.235 249.496 106.722 256.833 106.722 265.113C106.722 272.744 138.592 279.574 188.797 284.155C185.208 285.696 183.305 287.299 183.305 288.946C183.305 300.855 250.316 310.509 372.543 310.509C494.77 310.509 593.854 300.854 593.854 288.946C593.856 283.148 570.376 277.887 532.186 274.013Z" fill="#B1CBDB"/>
<mask id="mask0_106_437" style="mask-type:luminance" maskUnits="userSpaceOnUse" x="74" y="225" width="523" height="88">
<path d="M532.186 274.903C530.644 274.744 530.323 272.897 531.729 272.312C536.69 270.246 539.339 268.076 539.339 265.84C539.339 263.664 536.835 261.552 532.134 259.537C530.749 258.943 531.069 256.951 532.603 256.961C582.986 257.317 602.216 258.168 594.691 248.376C587.351 238.822 498.257 225.565 380.332 225.565C262.406 225.565 166.808 229.442 166.808 241.569C166.808 242.845 167.879 244.094 169.908 245.311C112.161 249.937 74.6487 257.408 74.6487 265.84C74.6487 273.612 106.519 280.568 156.724 285.232C153.135 286.801 151.232 288.434 151.232 290.112C151.232 302.239 250.316 312.071 372.543 312.071C494.77 312.071 593.856 302.238 593.856 290.11C593.856 284.207 570.376 278.849 532.186 274.903Z" fill="white"/>
</mask>
<g mask="url(#mask0_106_437)">
<path d="M468.928 295.806L549.638 255.244L422.493 240.796L385.688 253.074L468.928 295.806Z" fill="#B1CBDB"/>
</g>
<mask id="mask1_106_437" style="mask-type:luminance" maskUnits="userSpaceOnUse" x="74" y="225" width="523" height="88">
<path d="M532.186 274.903C530.644 274.744 530.323 272.897 531.729 272.312C536.69 270.246 539.339 268.076 539.339 265.84C539.339 263.664 536.835 261.552 532.134 259.537C530.749 258.943 531.069 256.951 532.603 256.961C582.986 257.317 602.216 258.168 594.691 248.376C587.351 238.822 498.257 225.565 380.332 225.565C262.406 225.565 166.808 229.442 166.808 241.569C166.808 242.845 167.879 244.094 169.908 245.311C112.161 249.937 74.6487 257.408 74.6487 265.84C74.6487 273.612 106.519 280.568 156.724 285.232C153.135 286.801 151.232 288.434 151.232 290.112C151.232 302.239 250.316 312.071 372.543 312.071C494.77 312.071 593.856 302.238 593.856 290.11C593.856 284.207 570.376 278.849 532.186 274.903Z" fill="white"/>
</mask>
<g mask="url(#mask1_106_437)">
<path d="M279.835 277.15L378.93 274.758L419.889 253.617L358 234.631L279.835 277.15Z" fill="#B1CBDB"/>
</g>
<path d="M267.345 254.276L282.033 246.937L390.502 210.244C390.502 210.244 382.593 227.743 395.021 236.211L282.598 277.984L267.345 254.276Z" fill="#F9EDDD"/>
<path opacity="0.45" d="M267.345 254.276L282.033 246.937L390.502 210.244C390.502 210.244 382.593 227.743 395.021 236.211L282.598 277.984L267.345 254.276Z" fill="#F9EDDD"/>
<path d="M284.293 240.728L279.582 254.597L388.085 220.277V212.477L282.033 241.856" fill="#F9EDDD"/>
<path d="M194.467 242.986L153.325 239.904L159.814 234.149L268.474 200.083L393.891 209.116L282.033 250.324L194.467 242.986Z" fill="#C13D56"/>
<path d="M282.033 246.937L167.125 232.654C164.589 232.338 162.017 232.854 159.814 234.149C154.862 237.059 148.24 243.614 156.674 255.738C158.505 258.369 161.354 260.12 164.526 260.587L282.598 277.985C282.598 277.985 272.994 258.227 282.033 246.937Z" fill="#F9EDDD"/>
<path d="M393.891 209.116V211.938L282.033 250.324L159.814 234.149C159.814 234.149 162.983 232.854 165.732 232.274L282.033 246.937L393.891 209.116Z" fill="#C13D56"/>
<path d="M393.891 209.116V211.938L282.033 250.324L159.814 234.149C159.814 234.149 162.983 232.854 165.732 232.274L282.033 246.937L393.891 209.116Z" fill="#C13D56"/>
<path d="M166.786 260.587C163.614 260.12 160.764 258.369 158.934 255.739C150.499 243.615 157.122 237.059 162.074 234.149C163.526 233.295 165.141 232.788 166.798 232.626C164.369 232.392 161.922 232.91 159.814 234.149C154.862 237.059 148.24 243.615 156.674 255.739C158.505 258.369 161.354 260.12 164.526 260.587L282.598 277.985C282.598 277.985 282.535 277.853 282.432 277.628L166.786 260.587Z" fill="#C13D56"/>
<path d="M166.786 260.587C163.614 260.12 160.764 258.369 158.934 255.739C150.499 243.615 157.122 237.059 162.074 234.149C163.526 233.295 165.141 232.788 166.798 232.626C164.369 232.392 161.922 232.91 159.814 234.149C154.862 237.059 148.24 243.615 156.674 255.739C158.505 258.369 161.354 260.12 164.526 260.587L282.598 277.985C282.598 277.985 282.535 277.853 282.432 277.628L166.786 260.587Z" fill="#C13D56"/>
<path d="M157.955 257.256C159.716 259.034 162.015 260.217 164.526 260.586L282.598 277.984C282.598 277.984 282.276 276.189 281.806 275.041L157.955 257.256Z" fill="#C13D56"/>
<path d="M271.939 275.467L281.806 275.042L397.281 233.953V236.212L282.598 277.985L271.939 275.467Z" fill="#C13D56"/>
<path d="M281.806 275.042L157.956 257.256C159.717 259.034 162.016 260.217 164.527 260.586L282.599 277.984L397.283 236.211V233.953L281.806 275.042Z" fill="#C13D56"/>
<path d="M393.891 209.116V211.938L282.033 250.324V246.937L393.891 209.116Z" fill="#C13D56"/>
<path d="M281.806 275.042L282.598 277.985L397.281 236.212V233.953L281.806 275.042Z" fill="#C13D56"/>
<path opacity="0.97" d="M162.102 236.267L279.192 253.427L386.134 217.547" stroke="#F9EDDD" stroke-width="0.6519" stroke-miterlimit="10"/>
<path opacity="0.97" d="M162.102 240.219L278.062 257.379L386.134 221.499" stroke="#F9EDDD" stroke-width="0.6519" stroke-miterlimit="10"/>
<path opacity="0.97" d="M162.102 244.17L278.062 261.33L386.134 225.45" stroke="#F9EDDD" stroke-width="0.6519" stroke-miterlimit="10"/>
<path opacity="0.97" d="M162.102 248.122L278.626 265.282L386.134 229.402" stroke="#F9EDDD" stroke-width="0.6519" stroke-miterlimit="10"/>
<path opacity="0.97" d="M162.102 252.074L279.757 269.233L386.134 233.353" stroke="#F9EDDD" stroke-width="0.6519" stroke-miterlimit="10"/>
<path opacity="0.97" d="M162.102 256.025L280.887 273.185L386.134 237.305" stroke="#F9EDDD" stroke-width="0.6519" stroke-miterlimit="10"/>
<path d="M363.385 185.406L383.634 187.354C383.634 187.354 378.317 193.649 382.997 206.744L282.316 234.236L266.78 226.05L266.562 207.698C266.562 207.698 269.039 200.647 270.735 200.647C272.43 200.647 363.385 185.406 363.385 185.406Z" fill="#F3C7A1"/>
<path opacity="0.38" d="M381.063 191.611L290.944 212.558C282.408 214.542 277.467 223.729 280.893 231.79C280.997 232.033 281.107 232.278 281.223 232.521L275.238 232.76L269.04 224.356L271.865 204.034L283.378 204.051L342.037 193.764L383.634 187.353L381.063 191.611Z" fill="#F3C7A1"/>
<path d="M280.903 204.035L278.233 211.411L385.982 187.664L386.547 185.406L279.208 204.599" fill="#D0859F"/>
<path d="M270.169 230.566L280.619 232.563L384.852 204.599V207.422L282.316 234.236L269.039 231.696" fill="#D0859F"/>
<path opacity="0.58" d="M280.903 204.035L278.233 211.411L385.982 187.664L386.547 185.406L279.208 204.599" fill="#D0859F"/>
<path opacity="0.58" d="M270.169 230.566L280.619 232.563L384.852 204.599V207.422L282.316 234.236L269.039 231.696" fill="#D0859F"/>
<path d="M260.565 221.534L280.055 208.833L386.547 185.406L269.604 175.245L163.678 199.236L185.993 207.986L260.565 221.534Z" fill="#D0859F"/>
<path d="M280.056 208.833C280.056 208.833 269.887 222.946 282.315 234.236L164.807 223.51C164.807 223.51 149.554 211.091 163.677 199.236L280.056 208.833Z" fill="#D0859F"/>
<path opacity="0.11" d="M280.056 208.833C280.056 208.833 269.887 222.946 282.315 234.236L164.807 223.51C164.807 223.51 149.554 211.091 163.677 199.236L280.056 208.833Z" fill="#D0859F"/>
<path opacity="0.11" d="M274.503 208.375C273.902 209.026 255.457 228.67 217.258 228.298L282.315 234.236C269.886 222.946 280.055 208.833 280.055 208.833L274.503 208.375Z" fill="#D0859F"/>
<path opacity="0.11" d="M159.663 217.245C161.772 221.036 164.808 223.51 164.808 223.51L195.177 226.282C179.378 223.929 167.774 220.454 159.663 217.245Z" fill="#D0859F"/>
<path opacity="0.11" d="M280.056 208.833C280.056 208.833 269.887 222.946 282.315 234.236L164.807 223.51C164.807 223.51 149.554 211.091 163.677 199.236L280.056 208.833Z" fill="#D0859F"/>
<path d="M277.231 233.953C277.231 233.953 266.78 224.356 275.758 208.848L272.146 208.55C262.825 222.662 272.429 233.389 272.429 233.389L277.231 233.953Z" fill="#EDB74A"/>
<path d="M169.328 223.228C169.328 223.228 154.333 210.451 167.854 198.687L164.243 198.389C150.12 210.244 165.373 223.228 165.373 223.228H169.328Z" fill="#EDB74A"/>
<path opacity="0.97" d="M279.491 213.349L380.051 190.769" stroke="#F9EDDD" stroke-width="0.3259" stroke-miterlimit="10"/>
<path opacity="0.97" d="M279.895 215.688L380.131 192.704" stroke="#F9EDDD" stroke-width="0.3259" stroke-miterlimit="10"/>
<path opacity="0.97" d="M280.298 218.027L380.212 194.64" stroke="#F9EDDD" stroke-width="0.3259" stroke-miterlimit="10"/>
<path opacity="0.97" d="M280.701 220.365L380.293 196.575" stroke="#F9EDDD" stroke-width="0.3259" stroke-miterlimit="10"/>
<path opacity="0.97" d="M281.105 222.704L380.373 198.511" stroke="#F9EDDD" stroke-width="0.3259" stroke-miterlimit="10"/>
<path opacity="0.97" d="M281.509 225.042L380.454 200.446" stroke="#F9EDDD" stroke-width="0.3259" stroke-miterlimit="10"/>
<path opacity="0.97" d="M281.912 227.381L380.534 202.382" stroke="#F9EDDD" stroke-width="0.3259" stroke-miterlimit="10"/>
<path opacity="0.97" d="M282.316 229.72L380.616 204.317" stroke="#F9EDDD" stroke-width="0.3259" stroke-miterlimit="10"/>
<path d="M195.401 178.309L179.547 178.232C179.547 178.232 184.256 184.836 181.608 193.192L263.427 199.051L275.053 192.494L273.75 181.455C273.75 181.455 271.224 177.484 269.884 177.663C268.544 177.843 195.401 178.309 195.401 178.309Z" fill="#F9EDDD"/>
<path opacity="0.38" d="M187.688 176.939L180.287 179.107L258.34 186.329C259.935 186.477 261.065 188.018 260.642 189.562C260.047 191.725 257.766 194.363 250.397 195.003L218.937 194.871L264.883 198.615L274.151 188.763L274.124 180.326L252.065 179.896L187.688 176.939Z" fill="#F3C7A1"/>
<path d="M262.116 180.772L264.821 184.918L177.715 178.667L177.086 177.372L263.502 180.932" fill="#3D6EBE"/>
<path d="M272.737 195.564L264.634 197.868L179.969 192.101L180.197 193.796L263.427 199.052L273.72 196.123" fill="#3D6EBE"/>
<path opacity="0.39" d="M262.116 180.772L264.821 184.918L177.715 178.667L177.086 177.372L263.502 180.932" fill="#3D6EBE"/>
<path opacity="0.39" d="M272.737 195.564L264.634 197.868L179.969 192.101L180.197 193.796L263.427 199.052L273.72 196.123" fill="#3D6EBE"/>
<path d="M279.604 189.127L263.172 183.563L177.086 177.372L276.384 162.825L354.419 165.497L337.478 173.109L279.604 189.127Z" fill="#3D6EBE"/>
<path d="M263.172 183.563C263.172 183.563 272.348 190.959 263.428 199.051L355.478 180.189C355.478 180.189 366.54 171.121 354.42 165.497L263.172 183.563Z" fill="#3D6EBE"/>
<path d="M263.172 183.563C263.172 183.563 272.348 190.959 263.428 199.051L355.478 180.189C355.478 180.189 366.54 171.121 354.42 165.497L263.172 183.563Z" fill="#3D6EBE"/>
<path opacity="0.11" d="M267.526 182.701C268.052 183.028 284.217 192.87 314.391 188.608L263.427 199.051C272.347 190.959 263.171 183.563 263.171 183.563L267.526 182.701Z" fill="#3D6EBE"/>
<path opacity="0.11" d="M359.042 175.884C357.68 178.383 355.477 180.189 355.477 180.189L331.688 185.063C343.991 181.98 352.887 178.668 359.042 175.884Z" fill="#3D6EBE"/>
<path opacity="0.39" d="M263.172 183.563C263.172 183.563 272.348 190.959 263.428 199.051L355.478 180.189C355.478 180.189 366.54 171.121 354.42 165.497L263.172 183.563Z" fill="#3D6EBE"/>
<path opacity="0.97" d="M181.756 180.043L263.672 186.252" stroke="#F9EDDD" stroke-width="0.3259" stroke-miterlimit="10"/>
<path opacity="0.97" d="M181.945 181.298L263.672 187.445" stroke="#F9EDDD" stroke-width="0.3259" stroke-miterlimit="10"/>
<path opacity="0.97" d="M182.133 182.552L263.672 188.636" stroke="#F9EDDD" stroke-width="0.3259" stroke-miterlimit="10"/>
<path opacity="0.97" d="M182.321 183.807L263.672 189.828" stroke="#F9EDDD" stroke-width="0.3259" stroke-miterlimit="10"/>
<path opacity="0.97" d="M182.51 185.061L263.672 191.02" stroke="#F9EDDD" stroke-width="0.3259" stroke-miterlimit="10"/>
<path opacity="0.97" d="M182.698 186.316L263.672 192.211" stroke="#F9EDDD" stroke-width="0.3259" stroke-miterlimit="10"/>
<path opacity="0.97" d="M182.886 187.57L263.672 193.403" stroke="#F9EDDD" stroke-width="0.3259" stroke-miterlimit="10"/>
<path opacity="0.97" d="M183.075 188.824L263.672 194.594" stroke="#F9EDDD" stroke-width="0.3259" stroke-miterlimit="10"/>
<path opacity="0.97" d="M183.263 190.079L263.672 195.787" stroke="#F9EDDD" stroke-width="0.3259" stroke-miterlimit="10"/>
<path opacity="0.97" d="M183.451 191.333L263.672 196.979" stroke="#F9EDDD" stroke-width="0.3259" stroke-miterlimit="10"/>
<path d="M258.024 171.34L249.389 176.625L247.035 177.121L181.925 175.93L181.918 174.016L201.913 174.913L249.589 173.895L258.024 171.34Z" fill="#66A09C"/>
<path opacity="0.83" d="M258.024 171.34L249.389 176.625L247.035 177.121L181.925 175.93L181.918 174.016L201.913 174.913L249.589 173.895L258.024 171.34Z" fill="#66A09C"/>
<path d="M337.081 153.346L336.078 140.913L287.72 139.18L186.018 146.017L204.974 158.623" fill="#66A09C"/>
<path d="M240.908 166.621L242.483 148.199L333.48 140.593C339.468 140.093 345.076 143.617 347.189 149.239C347.814 150.904 348.269 152.712 348.388 154.591C348.844 161.787 343.34 167.989 336.152 168.633L246.556 177.123L238.988 165.192" fill="#66A09C"/>
<path opacity="0.46" d="M240.908 166.621L242.483 148.199L333.48 140.593C339.468 140.093 345.076 143.617 347.189 149.239C347.814 150.904 348.269 152.712 348.388 154.591C348.844 161.787 343.34 167.989 336.152 168.633L246.556 177.123L238.988 165.192" fill="#66A09C"/>
<path d="M187.458 146.969L242.005 148.2C245.756 148.186 249.256 150.142 251.149 153.377C254.077 158.382 256.608 166.178 250.104 173.024C248.039 175.197 245.14 175.907 242.144 175.827L183.73 174.249C183.73 174.249 198.051 163.193 187.458 146.969Z" fill="#F9EDDD"/>
<path opacity="0.97" d="M251.149 153.377C249.256 150.142 245.756 148.186 242.005 148.2L187.458 146.969C188.354 148.341 189.068 149.676 189.631 150.971L237.232 152.045C240.983 152.032 244.483 153.987 246.376 157.222C249.065 161.818 251.414 168.769 246.742 175.176C247.994 174.731 249.141 174.039 250.104 173.025C256.608 166.178 254.077 158.381 251.149 153.377Z" fill="#F9EDDD"/>
<path d="M251.628 153.376C249.735 150.14 246.235 148.185 242.484 148.199L187.937 146.967C187.945 146.98 187.952 146.992 187.961 147.005L241.048 148.204C244.799 148.19 248.299 150.145 250.192 153.381C253.121 158.385 255.651 166.182 249.147 173.028C247.356 174.912 244.937 175.696 242.371 175.818L242.623 175.825C245.62 175.905 248.519 175.195 250.584 173.022C257.087 166.176 254.556 158.379 251.628 153.376Z" fill="#66A09C"/>
<path opacity="0.22" d="M348.389 154.591C348.27 152.712 347.815 150.905 347.189 149.239C345.077 143.617 339.469 140.093 333.48 140.593L242.484 148.199C242.484 148.199 297.316 144.884 314.107 154.389C322.236 158.991 327.109 164.61 329.979 169.187L336.153 168.634C343.34 167.989 348.845 161.787 348.389 154.591Z" fill="#66A09C"/>
<path d="M185.644 146.258L244.524 148.144C244.524 148.144 247.64 149.048 249.206 150.641L246.538 149.991C244.891 149.59 243.205 149.363 241.51 149.314L185.65 147.693L185.644 146.258Z" fill="#66A09C"/>
<path d="M251.628 153.376C250.833 152.018 249.753 150.888 248.492 150.032C248.329 149.911 248.159 149.794 247.985 149.683C246.364 148.662 244.476 148.142 242.562 148.081L185.645 146.258L185.65 147.693L238.766 149.234C240.743 149.291 242.714 149.467 244.668 149.757C246.94 150.095 249.003 151.366 250.171 153.343C250.179 153.355 250.186 153.368 250.194 153.381C253.122 158.385 255.653 166.182 249.149 173.028C247.358 174.912 244.939 175.696 242.373 175.818L243.605 175.851C246.198 175.921 248.739 174.949 250.533 173.076C257.1 166.217 254.563 158.392 251.628 153.376Z" fill="#66A09C"/>
<path opacity="0.97" d="M190.443 149.589L245.981 151.295" stroke="#F9EDDD" stroke-width="0.5524" stroke-miterlimit="10"/>
<path opacity="0.97" d="M191.67 151.736L247.665 153.397" stroke="#F9EDDD" stroke-width="0.5524" stroke-miterlimit="10"/>
<path opacity="0.97" d="M191.939 153.888L249.587 155.499" stroke="#F9EDDD" stroke-width="0.5524" stroke-miterlimit="10"/>
<path opacity="0.97" d="M192.687 156.038L250.553 157.605" stroke="#F9EDDD" stroke-width="0.5524" stroke-miterlimit="10"/>
<path opacity="0.97" d="M192.957 158.19L250.56 159.714" stroke="#F9EDDD" stroke-width="0.5524" stroke-miterlimit="10"/>
<path opacity="0.97" d="M192.747 160.342L251.048 161.821" stroke="#F9EDDD" stroke-width="0.5524" stroke-miterlimit="10"/>
<path opacity="0.97" d="M192.059 162.498L251.055 163.93" stroke="#F9EDDD" stroke-width="0.5524" stroke-miterlimit="10"/>
<path opacity="0.97" d="M191.849 164.651L250.584 166.041" stroke="#F9EDDD" stroke-width="0.5524" stroke-miterlimit="10"/>
<path opacity="0.97" d="M191.161 166.806L249.525 168.154" stroke="#F9EDDD" stroke-width="0.5524" stroke-miterlimit="10"/>
<path opacity="0.97" d="M190.473 168.962L248.772 170.266" stroke="#F9EDDD" stroke-width="0.5524" stroke-miterlimit="10"/>
<path opacity="0.97" d="M188.348 171.122L247.061 172.382" stroke="#F9EDDD" stroke-width="0.5524" stroke-miterlimit="10"/>
<path opacity="0.97" d="M188.139 173.275L244.872 174.499" stroke="#F9EDDD" stroke-width="0.5524" stroke-miterlimit="10"/>
<path opacity="0.83" d="M251.628 153.376C250.833 152.018 249.753 150.888 248.492 150.032C248.329 149.911 248.159 149.794 247.985 149.683C246.364 148.662 244.476 148.142 242.562 148.081L185.645 146.258L185.65 147.693L238.766 149.234C240.743 149.291 242.714 149.467 244.668 149.757C246.94 150.095 249.003 151.366 250.171 153.343C250.179 153.355 250.186 153.368 250.194 153.381C253.122 158.385 255.653 166.182 249.149 173.028C247.358 174.912 244.939 175.696 242.373 175.818L243.605 175.851C246.198 175.921 248.739 174.949 250.533 173.076C257.1 166.217 254.563 158.392 251.628 153.376Z" fill="#66A09C"/>
<path d="M272.816 158.905L272.647 156.713C272.561 155.779 272.441 155.074 272.289 154.599C272.334 154.051 272.494 153.761 272.77 153.731L273.68 153.632C274.475 153.544 275.067 153.849 275.458 154.549C275.8 155.168 276.011 155.902 276.088 156.746C276.186 157.816 276.222 158.475 276.198 158.723C276.172 158.971 276.144 159.207 276.11 159.43C276.076 159.653 276.027 159.835 275.962 159.979C275.897 160.122 275.811 160.281 275.704 160.455C275.598 160.63 275.473 160.781 275.327 160.91C275.006 161.195 274.611 161.449 274.142 161.674L274.368 164.131L274.928 168.467C274.946 168.654 274.889 168.821 274.76 168.967C274.631 169.114 274.474 169.197 274.293 169.217L273.833 168.985C273.586 168.157 273.399 167.04 273.27 165.634L272.975 161.53C272.875 161.337 272.818 161.155 272.803 160.982L272.796 160.904C272.902 160.588 272.909 159.922 272.816 158.905ZM273.61 156.212L274.061 160.685L274.064 160.718C274.875 160.51 275.167 159.17 274.941 156.701C274.874 155.975 274.747 155.49 274.562 155.246C274.362 154.989 274.079 154.88 273.715 154.919C273.713 154.896 273.638 154.894 273.49 154.909L273.61 156.212Z" fill="white"/>
<path d="M281.768 160.861L281.708 159.983C281.702 159.909 281.689 159.872 281.668 159.874L281.63 159.459C281.409 157.051 281.377 155.325 281.533 154.28C281.663 153.397 281.816 152.844 281.993 152.62C282.17 152.397 282.352 152.276 282.54 152.255C284.144 152.079 285.331 152.856 286.102 154.585C286.546 155.58 286.838 156.832 286.977 158.343L286.993 158.511L287.272 161.11C287.675 165.516 286.958 167.819 285.12 168.02C284.359 168.103 283.732 167.699 283.243 166.809C282.776 165.953 282.46 165.097 282.293 164.239C282.031 162.944 281.857 161.819 281.768 160.861ZM282.703 157.586L282.796 159.718C283 161.939 283.34 163.86 283.814 165.478C284.247 166.404 284.626 166.938 284.951 167.076C285.2 167.048 285.416 166.912 285.597 166.665C285.778 166.418 285.911 166.1 285.994 165.709C286.077 165.318 286.14 164.909 286.183 164.482C286.219 164.062 286.237 163.614 286.233 163.14C286.226 162.316 286.196 161.616 286.143 161.04C286.09 160.465 285.964 159.586 285.764 158.408C285.564 157.229 285.438 156.347 285.384 155.763L285.348 155.36C285.283 154.8 285.072 154.319 284.715 153.916C284.358 153.513 283.934 153.338 283.443 153.392C282.971 153.444 282.684 153.773 282.584 154.381C282.501 154.888 282.494 155.506 282.56 156.232L282.703 157.586Z" fill="white"/>
<path d="M292.419 155.073L292.131 153.144C292.031 152.059 292.271 151.486 292.85 151.422C293.221 151.382 293.735 151.421 294.392 151.542C295.05 151.663 295.392 151.873 295.419 152.173C295.448 152.486 295.268 152.749 294.879 152.957C294.217 152.788 293.682 152.7 293.273 152.691C293.323 153.017 293.363 153.346 293.394 153.675L293.606 156.984C293.607 157 293.638 157.116 293.699 157.336L294.434 157.221C295.101 157.149 295.454 157.322 295.492 157.741C295.506 157.906 295.459 158.057 295.349 158.193C295.239 158.33 295.091 158.409 294.906 158.428C294.72 158.448 294.518 158.455 294.301 158.449L293.776 158.506C293.869 159.085 293.943 159.663 293.996 160.239L294.287 164.411C294.366 165.271 294.418 165.7 294.446 165.697L295.966 165.474C296.492 165.416 296.772 165.575 296.806 165.949C296.826 166.181 296.751 166.359 296.579 166.484C296.407 166.608 296.206 166.683 295.977 166.708L294.229 166.9C294.047 166.92 293.875 166.867 293.715 166.746C293.554 166.624 293.461 166.465 293.437 166.271L293.381 165.666L292.893 161.798L292.419 155.073Z" fill="white"/>
<path d="M309.655 164.669L309.396 161.728C309.333 161.047 309.192 160.054 308.969 158.748C308.748 157.443 308.617 156.562 308.574 156.106C308.533 155.65 308.495 155.104 308.465 154.468C308.434 153.834 308.404 153.359 308.376 153.045C308.333 153.253 308.198 154.337 307.969 156.297C307.372 161.363 306.849 163.922 306.397 163.97C306.128 164 305.909 163.933 305.741 163.769C305.573 163.606 305.475 163.375 305.448 163.076C305.381 162.35 304.987 160.885 304.264 158.678C303.541 156.471 302.946 154.786 302.479 153.621C302.711 159.05 302.915 162.714 303.089 164.614L303.182 165.297C303.204 165.544 303.175 165.738 303.093 165.879C303.009 166.02 302.868 166.101 302.666 166.124C302.464 166.146 302.293 166.109 302.156 166.016C302.018 165.921 301.942 165.799 301.928 165.649C301.785 164.086 301.676 161.733 301.602 158.591C301.528 155.448 301.42 153.095 301.277 151.532C301.182 151.398 301.127 151.244 301.11 151.068C301.095 150.894 301.167 150.751 301.327 150.642C301.487 150.535 301.665 150.47 301.86 150.448C302.157 150.416 302.884 151.891 304.042 154.874C305.199 157.855 305.933 159.927 306.245 161.086C306.284 160.856 306.359 160.275 306.468 159.345C306.577 158.416 306.694 157.449 306.819 156.445C306.944 155.434 307.089 154.413 307.253 153.383C307.621 151.017 308.007 149.81 308.411 149.765C308.593 149.745 308.77 149.783 308.942 149.878C309.114 149.971 309.209 150.116 309.227 150.311C309.328 151.418 309.523 153.067 309.813 155.256C310.101 157.447 310.292 159.038 310.383 160.033L310.555 162.462L310.555 162.474C310.571 162.646 310.661 163.187 310.828 164.099L310.909 164.544C310.984 164.702 311.03 164.872 311.048 165.055C311.065 165.239 311.018 165.442 310.909 165.666C310.801 165.888 310.642 166.012 310.433 166.036C310.002 166.082 309.743 165.627 309.655 164.669Z" fill="white"/>
<path d="M316.365 163.199L317.239 163.273C317.502 163.244 317.719 163.092 317.892 162.817C318.063 162.541 318.179 162.208 318.238 161.816C318.353 161.063 318.385 160.405 318.333 159.839C318.281 159.274 318.146 158.725 317.926 158.189C317.707 157.654 317.453 157.162 317.163 156.714C316.874 156.265 316.585 155.808 316.298 155.341C315.611 154.238 315.216 153.124 315.114 152.003C315.051 151.314 315.099 150.694 315.26 150.139C315.559 149.11 316.034 148.559 316.68 148.489C316.922 148.462 317.161 148.523 317.396 148.671C317.631 148.818 317.757 148.994 317.776 149.195C317.808 149.547 317.656 149.741 317.319 149.778C317.171 149.795 317.022 149.765 316.872 149.691C316.436 149.762 316.189 150.336 316.131 151.415C316.119 151.651 316.127 151.924 316.156 152.234C316.184 152.545 316.281 152.922 316.443 153.364C316.606 153.808 316.796 154.196 317.015 154.532C317.232 154.867 317.467 155.238 317.719 155.644C317.971 156.051 318.21 156.445 318.436 156.829C318.952 157.718 319.263 158.763 319.367 159.968C319.459 160.896 319.348 161.803 319.035 162.691C318.885 163.131 318.648 163.503 318.326 163.806C318.003 164.11 317.62 164.289 317.176 164.345L317.181 164.401C316.606 164.373 316.269 164.113 316.17 163.617L316.365 163.199Z" fill="white"/>
<path opacity="0.5" d="M248.733 154.148C256.861 156.086 261.712 164.257 261.712 164.257L335.508 140.96L307.487 139.677C307.487 139.677 234.472 150.747 248.733 154.148Z" fill="#66A09C"/>
<path d="M188.739 130.083L172.997 133.961C172.997 133.961 177.918 138.31 175.745 149.177L258.32 159.211L269.622 150.96L267.668 136.464C267.668 136.464 264.898 131.191 263.561 131.387C262.225 131.583 188.739 130.083 188.739 130.083Z" fill="#F3C7A1"/>
<path opacity="0.38" d="M175.518 137.02L249.006 143.115C255.967 143.693 260.928 150.366 259.16 157.118C259.106 157.323 259.048 157.527 258.984 157.733L263.731 157.23L267.645 149.886L263.064 134.188L253.987 135.533L206.541 134.205L172.997 133.961L175.518 137.02Z" fill="#F3C7A1"/>
<path d="M255.935 135.234L258.895 140.741L171.181 134.477L170.474 132.761L257.337 135.483" fill="#EDB74A"/>
<path d="M267.473 154.914L259.464 157.697L174.033 147.7L174.361 149.925L258.32 159.212L268.494 155.673" fill="#EDB74A"/>
<path opacity="0.59" d="M255.935 135.234L258.895 140.741L171.181 134.477L170.474 132.761L257.337 135.483" fill="#EDB74A"/>
<path opacity="0.59" d="M267.473 154.914L259.464 157.697L174.033 147.7L174.361 149.925L258.32 159.212L268.494 155.673" fill="#EDB74A"/>
<path d="M273.999 146.68L257.159 138.919L170.474 132.761L261.511 111.226L347.816 117.894L331.233 127.374L273.999 146.68Z" fill="#EDB74A"/>
<path d="M257.159 138.919C257.159 138.919 266.812 148.871 258.32 159.212L349.737 137.165C349.737 137.165 360.326 125.608 347.816 117.894L257.159 138.919Z" fill="#EDB74A"/>
<path d="M257.159 138.919C257.159 138.919 266.812 148.871 258.32 159.212L349.737 137.165C349.737 137.165 360.326 125.608 347.816 117.894L257.159 138.919Z" fill="#EDB74A"/>
<path opacity="0.11" d="M261.485 137.917C262.033 138.36 278.854 151.717 308.932 147.006L258.32 159.212C266.812 148.872 257.159 138.92 257.159 138.92L261.485 137.917Z" fill="#EDB74A"/>
<path opacity="0.11" d="M353.067 131.629C351.843 134.863 349.736 137.165 349.736 137.165L326.109 142.862C338.296 139.18 347.043 135.099 353.067 131.629Z" fill="#EDB74A"/>
<path opacity="0.59" d="M257.159 138.919C257.159 138.919 266.812 148.871 258.32 159.212L349.737 137.165C349.737 137.165 360.326 125.608 347.816 117.894L257.159 138.919Z" fill="#EDB74A"/>
<path opacity="0.97" d="M258.128 142.415L176.218 136.239" stroke="#F9EDDD" stroke-width="0.2598" stroke-miterlimit="10"/>
<path opacity="0.97" d="M258.081 144.306L176.378 137.775" stroke="#F9EDDD" stroke-width="0.2598" stroke-miterlimit="10"/>
<path opacity="0.97" d="M258.033 146.196L176.539 139.31" stroke="#F9EDDD" stroke-width="0.2598" stroke-miterlimit="10"/>
<path opacity="0.97" d="M257.986 148.088L176.7 140.845" stroke="#F9EDDD" stroke-width="0.2598" stroke-miterlimit="10"/>
<path opacity="0.97" d="M257.938 149.978L176.86 142.381" stroke="#F9EDDD" stroke-width="0.2598" stroke-miterlimit="10"/>
<path opacity="0.97" d="M257.892 151.869L177.02 143.916" stroke="#F9EDDD" stroke-width="0.2598" stroke-miterlimit="10"/>
<path opacity="0.97" d="M257.844 153.76L177.181 145.452" stroke="#F9EDDD" stroke-width="0.2598" stroke-miterlimit="10"/>
<path opacity="0.97" d="M257.796 155.651L177.342 146.988" stroke="#F9EDDD" stroke-width="0.2598" stroke-miterlimit="10"/>
<path opacity="0.59" d="M240.414 131.892L322.032 116.379L308.556 114.456L240.414 131.892Z" fill="#EDB74A"/>
<path d="M185.933 116.254L173.298 116.401C173.298 116.401 177.137 121.602 175.137 128.295L240.413 131.892L249.591 126.515L248.408 117.734C248.408 117.734 246.344 114.603 245.278 114.764C244.213 114.924 185.933 116.254 185.933 116.254Z" fill="#F9EDDD"/>
<path opacity="0.38" d="M179.768 115.263L173.898 117.088L236.192 121.82C237.465 121.917 238.386 123.13 238.068 124.366C237.623 126.098 235.839 128.229 229.976 128.837L204.904 129.143L241.567 131.525L248.824 123.552L248.692 116.83L231.108 116.776L179.768 115.263Z" fill="#F3C7A1"/>
<path d="M239.129 117.343L241.338 120.61L171.844 116.771L171.326 115.747L240.235 117.452" fill="#AF5099"/>
<path d="M247.786 128.992L241.36 130.933L173.817 127.447L174.02 128.794L240.413 131.892L248.577 129.423" fill="#AF5099"/>
<path opacity="0.4" d="M239.129 117.343L241.338 120.61L171.844 116.771L171.326 115.747L240.235 117.452" fill="#AF5099"/>
<path opacity="0.4" d="M247.786 128.992L241.36 130.933L173.817 127.447L174.02 128.794L240.413 131.892L248.577 129.423" fill="#AF5099"/>
<path d="M253.174 123.771L240.007 119.553L171.326 115.747L250.263 102.855L312.483 103.962L299.082 110.25L253.174 123.771Z" fill="#AF5099"/>
<path d="M240.007 119.553C240.007 119.553 247.415 125.328 240.413 131.892L313.518 115.655C313.518 115.655 322.215 108.284 312.483 103.962L240.007 119.553Z" fill="#AF5099"/>
<path d="M240.007 119.553C240.007 119.553 247.415 125.328 240.413 131.892L313.518 115.655C313.518 115.655 322.215 108.284 312.483 103.962L240.007 119.553Z" fill="#AF5099"/>
<path opacity="0.11" d="M243.465 118.809C243.889 119.063 256.899 126.694 280.888 122.903L240.413 131.892C247.415 125.327 240.007 119.553 240.007 119.553L243.465 118.809Z" fill="#AF5099"/>
<path opacity="0.11" d="M316.302 112.177C315.249 114.186 313.518 115.654 313.518 115.654L294.625 119.851C304.388 117.233 311.434 114.477 316.302 112.177Z" fill="#AF5099"/>
<path opacity="0.4" d="M240.007 119.553C240.007 119.553 247.415 125.328 240.413 131.892L313.518 115.655C313.518 115.655 322.215 108.284 312.483 103.962L240.007 119.553Z" fill="#AF5099"/>
<path d="M266.622 120.503L266.326 116.76C266.295 116.341 266.268 115.922 266.244 115.505L266.422 115.311C266.558 115.294 266.748 115.774 266.995 116.751C267.194 117.549 267.362 118.269 267.496 118.91C267.63 119.55 267.704 119.899 267.717 119.954C267.732 119.739 267.763 119.356 267.808 118.8C267.853 118.246 267.885 117.816 267.905 117.51C267.966 116.617 267.986 115.829 267.965 115.149L267.96 115.092C267.963 115.007 267.986 114.935 268.029 114.875C268.071 114.815 268.117 114.779 268.168 114.767C268.22 114.756 268.262 114.774 268.298 114.819C268.334 114.863 268.354 114.916 268.358 114.976C268.415 115.748 268.519 116.9 268.673 118.432C268.826 119.965 268.931 121.116 268.987 121.888C268.999 122.044 268.98 122.183 268.931 122.309C268.882 122.435 268.831 122.504 268.778 122.516C268.668 122.54 268.603 122.425 268.584 122.169L268.26 118.1L268.224 117.61C268.211 117.865 268.173 118.315 268.11 118.962C268.048 119.608 268.013 120.099 268.006 120.438L268.011 120.5C268.008 120.525 268.005 120.587 268.004 120.682C268.001 120.779 267.998 120.86 267.992 120.923C267.987 120.987 267.977 121.058 267.962 121.139C267.931 121.3 267.868 121.39 267.771 121.411C267.609 121.447 267.507 121.163 267.463 120.561C267.42 119.965 267.257 119.156 266.975 118.128C266.835 117.614 266.744 117.266 266.701 117.083C266.73 117.603 266.753 117.993 266.773 118.254L267.12 122.222C267.13 122.361 267.104 122.49 267.043 122.608C266.926 122.633 266.844 122.598 266.795 122.5C266.746 122.402 266.716 122.261 266.702 122.078L266.622 120.503Z" fill="white"/>
<path d="M270.273 118.919L270.253 118.549C270.251 118.518 270.247 118.503 270.24 118.503L270.227 118.329C270.153 117.314 270.141 116.584 270.191 116.137C270.233 115.759 270.283 115.521 270.341 115.422C270.398 115.323 270.458 115.267 270.52 115.253C271.046 115.137 271.436 115.435 271.69 116.148C271.836 116.558 271.932 117.081 271.979 117.716L271.984 117.787L272.078 118.882C272.213 120.739 271.98 121.732 271.377 121.865C271.127 121.92 270.923 121.766 270.761 121.4C270.608 121.051 270.503 120.696 270.448 120.336C270.361 119.795 270.304 119.324 270.273 118.919ZM270.578 117.508L270.61 118.408C270.678 119.344 270.79 120.149 270.948 120.822C271.09 121.204 271.215 121.419 271.321 121.469C271.404 121.452 271.474 121.388 271.534 121.278C271.592 121.168 271.636 121.031 271.663 120.862C271.69 120.697 271.71 120.52 271.723 120.338C271.735 120.161 271.741 119.97 271.739 119.769C271.736 119.421 271.726 119.125 271.709 118.883C271.691 118.64 271.649 118.27 271.582 117.777C271.515 117.283 271.474 116.913 271.456 116.667L271.443 116.497C271.422 116.26 271.352 116.062 271.235 115.9C271.118 115.74 270.979 115.677 270.818 115.712C270.663 115.746 270.569 115.893 270.537 116.153C270.51 116.37 270.507 116.633 270.53 116.938L270.578 117.508Z" fill="white"/>
<path d="M273.715 119.937L273.512 116.884C273.497 116.677 273.46 116.363 273.403 115.94C273.346 115.52 273.312 115.251 273.304 115.134C273.296 115.017 273.314 114.921 273.36 114.845C273.406 114.769 273.458 114.724 273.515 114.713C273.98 114.61 274.388 114.915 274.736 115.629C274.935 116.038 275.054 116.489 275.091 116.984L275.113 117.474L275.152 118.007C275.2 118.657 275.21 119.093 275.185 119.321C275.161 119.548 275.131 119.738 275.097 119.892C275.064 120.048 275.02 120.189 274.967 120.315C274.843 120.605 274.676 120.852 274.469 121.058L273.979 121.166C273.865 121.191 273.777 120.783 273.715 119.937ZM274.228 120.377L274.246 120.609C274.639 120.521 274.833 119.903 274.83 118.752C274.829 118.486 274.818 118.231 274.801 117.989C274.659 116.041 274.322 115.081 273.79 115.11C273.775 115.372 273.784 115.726 273.817 116.171C273.849 116.618 273.917 117.312 274.02 118.252C274.125 119.193 274.194 119.902 274.228 120.377Z" fill="white"/>
<path d="M276.595 115.565L276.499 114.755C276.465 114.298 276.544 114.049 276.734 114.006C276.855 113.98 277.024 113.984 277.239 114.018C277.455 114.053 277.567 114.133 277.576 114.258C277.586 114.39 277.527 114.506 277.399 114.604C277.182 114.549 277.007 114.526 276.872 114.533C276.89 114.67 276.903 114.808 276.913 114.948L276.984 116.344C276.984 116.35 276.995 116.399 277.015 116.49L277.255 116.422C277.475 116.374 277.59 116.44 277.603 116.616C277.608 116.685 277.593 116.75 277.556 116.81C277.52 116.871 277.472 116.908 277.411 116.922C277.35 116.935 277.284 116.944 277.212 116.946L277.04 116.984C277.072 117.227 277.096 117.47 277.114 117.713L277.212 119.473C277.239 119.835 277.256 120.015 277.266 120.013L277.764 119.879C277.936 119.841 278.028 119.901 278.04 120.06C278.047 120.157 278.022 120.234 277.966 120.293C277.91 120.349 277.844 120.386 277.769 120.403L277.197 120.529C277.137 120.542 277.08 120.525 277.028 120.477C276.975 120.429 276.944 120.364 276.936 120.283L276.917 120.028L276.755 118.401L276.595 115.565Z" fill="white"/>
<path d="M279.571 116.58L279.641 117.631C279.704 118.485 279.796 119.149 279.919 119.622L279.861 119.899L279.673 119.94L279.572 119.817C279.555 119.526 279.534 119.201 279.507 118.839C279.48 118.479 279.405 117.712 279.28 116.539C279.155 115.366 279.071 114.488 279.029 113.904C279.006 113.599 279.07 113.429 279.22 113.396C279.457 113.344 279.661 113.388 279.835 113.528C280.01 113.67 280.108 113.905 280.133 114.232L280.182 114.913C280.196 115.099 280.184 115.274 280.147 115.437C280.109 115.6 280.065 115.774 280.013 115.957C279.961 116.138 279.933 116.241 279.928 116.261C279.965 116.414 280.03 116.713 280.125 117.159C280.331 118.135 280.53 118.827 280.724 119.232C280.779 119.349 280.81 119.441 280.815 119.511C280.82 119.582 280.81 119.645 280.786 119.7C280.763 119.756 280.727 119.789 280.68 119.798C280.585 119.819 280.483 119.684 280.374 119.393C280.264 119.101 280.168 118.773 280.088 118.406C279.842 117.284 279.697 116.669 279.653 116.56L279.571 116.58ZM279.39 113.724L279.376 113.866C279.395 114.131 279.428 114.512 279.473 115.009C279.518 115.506 279.549 115.868 279.566 116.096C279.666 115.995 279.737 115.769 279.778 115.423C279.819 115.076 279.833 114.815 279.82 114.638C279.807 114.462 279.794 114.332 279.782 114.25C279.769 114.168 279.747 114.08 279.718 113.983C279.66 113.785 279.549 113.699 279.39 113.724Z" fill="white"/>
<path d="M281.939 115.372L281.846 113.557C281.824 113.257 281.889 113.002 282.043 112.788L282.047 112.849C282.064 112.83 282.079 112.818 282.095 112.815C282.201 112.791 282.352 113.023 282.55 113.51C282.747 113.996 282.932 114.537 283.106 115.133C283.28 115.729 283.453 116.33 283.626 116.937C283.8 117.544 283.905 117.899 283.944 118.003C283.936 116.631 283.862 114.984 283.722 113.061L283.693 112.803C283.678 112.61 283.728 112.502 283.841 112.477C283.904 112.463 283.956 112.491 283.993 112.56C284.03 112.627 284.053 112.712 284.06 112.814L284.113 113.546C284.164 114.307 284.215 115.327 284.264 116.604C284.314 117.882 284.308 118.611 284.247 118.79C284.127 118.871 284.044 118.917 283.995 118.928C283.948 118.939 283.91 118.923 283.882 118.883C283.852 118.842 283.827 118.778 283.806 118.686C283.783 118.595 283.765 118.534 283.751 118.505V118.462C283.734 118.222 283.516 117.497 283.098 116.286C282.68 115.076 282.381 114.244 282.2 113.794L282.556 118.668C282.561 118.68 282.572 118.7 282.587 118.729C282.621 118.791 282.64 118.852 282.644 118.912C282.649 118.972 282.632 119.036 282.596 119.105C282.559 119.175 282.513 119.215 282.459 119.227C282.311 119.26 282.222 119.079 282.194 118.685L281.939 115.372Z" fill="white"/>
<path d="M289.265 115.739L289.381 116.319C289.387 116.398 289.423 116.586 289.488 116.881C289.553 117.178 289.59 117.372 289.596 117.468L289.597 117.477C289.607 117.619 289.576 117.719 289.504 117.777C289.41 117.797 289.333 117.792 289.278 117.76C289.222 117.727 289.189 117.647 289.179 117.521C289.159 117.248 289.097 116.856 288.993 116.348L288.313 116.354C288.287 116.577 288.273 116.82 288.269 117.08C288.266 117.34 288.258 117.53 288.247 117.651C288.224 117.9 288.159 118.036 288.051 118.06C287.998 118.072 287.947 118.058 287.898 118.019C287.85 117.979 287.823 117.922 287.817 117.847L287.827 117.759C288.009 116.011 288.116 114.325 288.148 112.701C288.149 112.657 288.147 112.525 288.14 112.31C288.127 111.832 288.147 111.522 288.2 111.379L288.429 111.328C288.491 111.314 288.546 111.323 288.596 111.354C288.645 111.384 288.672 111.441 288.679 111.523C288.715 112.014 288.813 112.733 288.976 113.681C289.137 114.627 289.234 115.314 289.265 115.739ZM288.924 116.012C288.904 115.919 288.886 115.756 288.869 115.523C288.851 115.288 288.82 114.999 288.776 114.654C288.732 114.31 288.675 113.911 288.606 113.456C288.538 113.003 288.488 112.674 288.461 112.467C288.374 114.137 288.325 115.309 288.314 115.987C288.396 116.043 288.6 116.051 288.924 116.012Z" fill="white"/>
<path d="M291.147 114.027L291.217 115.078C291.28 115.931 291.373 116.596 291.495 117.069L291.438 117.346L291.249 117.387L291.149 117.264C291.133 116.973 291.111 116.647 291.085 116.286C291.058 115.925 290.983 115.158 290.858 113.985C290.733 112.812 290.649 111.935 290.606 111.351C290.584 111.045 290.648 110.876 290.798 110.843C291.035 110.79 291.239 110.834 291.413 110.974C291.588 111.116 291.686 111.351 291.711 111.678L291.76 112.359C291.774 112.545 291.762 112.721 291.724 112.883C291.687 113.047 291.642 113.221 291.591 113.404C291.539 113.585 291.51 113.687 291.506 113.708C291.542 113.861 291.607 114.16 291.702 114.606C291.908 115.582 292.108 116.274 292.301 116.679C292.357 116.796 292.387 116.888 292.392 116.958C292.397 117.029 292.387 117.093 292.363 117.148C292.339 117.204 292.303 117.236 292.257 117.246C292.162 117.267 292.06 117.132 291.951 116.84C291.841 116.549 291.745 116.22 291.665 115.853C291.419 114.732 291.274 114.117 291.23 114.008L291.147 114.027ZM290.966 111.171L290.953 111.313C290.973 111.578 291.005 111.959 291.05 112.455C291.095 112.953 291.126 113.315 291.143 113.543C291.243 113.441 291.314 113.216 291.355 112.87C291.395 112.523 291.41 112.262 291.397 112.085C291.384 111.909 291.371 111.778 291.359 111.697C291.346 111.615 291.325 111.527 291.295 111.429C291.236 111.232 291.126 111.145 290.966 111.171Z" fill="white"/>
<path d="M294.175 116.497L294.107 115.757C294.107 115.754 294.102 115.643 294.093 115.424C294.07 115.346 293.98 114.625 293.825 113.263C293.671 111.901 293.58 111.069 293.554 110.763C293.544 110.765 293.536 110.767 293.527 110.769C293.161 110.841 292.97 110.785 292.957 110.602C292.953 110.542 292.972 110.487 293.019 110.437C293.064 110.387 293.11 110.357 293.157 110.347L294.084 110.234L294.194 110.205C294.335 110.174 294.411 110.236 294.422 110.39C294.428 110.47 294.409 110.538 294.367 110.597C294.324 110.656 294.274 110.691 294.217 110.704L293.901 110.707L293.895 110.809C293.939 111.42 294.044 112.329 294.208 113.532C294.372 114.735 294.476 115.643 294.521 116.257C294.526 116.333 294.507 116.406 294.463 116.474C294.419 116.544 294.368 116.583 294.311 116.596L294.175 116.497Z" fill="white"/>
<path opacity="0.97" d="M175.082 117.815L240.441 121.689" stroke="#F9EDDD" stroke-width="0.2598" stroke-miterlimit="10"/>
<path opacity="0.97" d="M175.249 118.812L240.457 122.639" stroke="#F9EDDD" stroke-width="0.2598" stroke-miterlimit="10"/>
<path opacity="0.97" d="M175.416 119.809L240.472 123.589" stroke="#F9EDDD" stroke-width="0.2598" stroke-miterlimit="10"/>
<path opacity="0.97" d="M175.582 120.806L240.488 124.539" stroke="#F9EDDD" stroke-width="0.2598" stroke-miterlimit="10"/>
<path opacity="0.97" d="M175.749 121.803L240.504 125.489" stroke="#F9EDDD" stroke-width="0.2598" stroke-miterlimit="10"/>
<path opacity="0.97" d="M175.915 122.801L240.519 126.438" stroke="#F9EDDD" stroke-width="0.2598" stroke-miterlimit="10"/>
<path opacity="0.97" d="M176.082 123.798L240.535 127.388" stroke="#F9EDDD" stroke-width="0.2598" stroke-miterlimit="10"/>
<path opacity="0.97" d="M176.248 124.795L240.55 128.338" stroke="#F9EDDD" stroke-width="0.2598" stroke-miterlimit="10"/>
<path opacity="0.97" d="M176.414 125.792L240.566 129.287" stroke="#F9EDDD" stroke-width="0.2598" stroke-miterlimit="10"/>
<path opacity="0.97" d="M176.581 126.789L240.582 130.237" stroke="#F9EDDD" stroke-width="0.2598" stroke-miterlimit="10"/>
<path d="M279.835 164.26L287.796 193.503L299.498 206.658L304.861 229.07L316.076 238.814L333.93 262.322L356.13 214.454L357.593 171.091L279.835 164.26Z" fill="#B1CBDB"/>
<path d="M440.205 279.542L351.056 265.357L340.159 263.19L416.748 225.967L500.045 252.276L520.888 253.417L466.535 285.76L440.205 279.542Z" fill="#F3C7A1"/>
<path d="M339.675 265.67C339.675 265.67 346.856 261.365 357.388 261.843C367.92 262.321 466.057 283.847 466.057 283.847L520.63 253.233C520.63 253.233 524.592 259.101 524.765 262.864L468.928 293.893L339.675 265.67Z" fill="#F9EDDD"/>
<path d="M339.675 265.67C339.675 265.67 337.281 260.886 357.388 261.843C367.919 262.344 466.535 284.804 466.535 284.804L520.63 253.233C520.63 253.233 524.592 259.101 524.765 262.864L468.928 293.893L339.675 265.67Z" fill="#F9EDDD"/>
<path opacity="0.55" d="M339.675 265.67C339.675 265.67 337.282 261.843 354.994 261.843C365.537 261.843 466.057 283.847 466.057 283.847L520.63 253.233C520.63 253.233 524.592 259.101 524.765 262.864L468.928 293.893L339.675 265.67Z" fill="#F3C7A1"/>
<path opacity="0.55" d="M500.045 252.276L511.992 252.966L464.62 278.106C464.62 278.106 415.441 258.394 371.814 259.162L500.045 252.276Z" fill="#F3C7A1"/>
<path d="M299.941 179.567L287.016 167.13L377.015 148.475C377.015 148.475 410.046 158.998 415.79 222.14L338.849 264.826C338.849 264.826 308.559 187.699 299.941 179.567Z" fill="#F9EDDD"/>
<path d="M285.101 167.13H292.282C292.282 167.13 329.143 191.047 339.674 265.67L337.375 264.275L334.266 259.593L285.101 167.13Z" fill="#F9EDDD"/>
<path d="M297.548 160.911C297.548 160.911 341.122 201.396 340.159 263.19L415.791 222.139C415.791 222.139 416.27 169.043 377.016 141.298L297.548 160.911Z" fill="#F9EDDD"/>
<path opacity="0.26" d="M297.548 160.911C297.548 160.911 341.122 201.396 340.159 263.19L415.791 222.139C415.791 222.139 416.27 169.043 377.016 141.298L297.548 160.911Z" fill="#F3C7A1"/>
<path opacity="0.23" d="M285.101 167.13L292.282 166.173C292.282 166.173 325.313 184.351 339.674 265.67L337.375 264.275L334.266 259.593L285.101 167.13Z" fill="#F3C7A1"/>
<path d="M525.895 264.235L468.928 295.806L345.42 268.062C345.42 268.062 335.366 270.932 333.93 262.322L279.835 164.26L285.101 163.782L336.324 258.974C336.324 258.974 335.389 262.337 337.376 264.275C338.569 265.438 340.812 266.089 344.941 265.192L469.408 291.979L524.938 260.886L525.895 264.235Z" fill="#66A09C"/>
<path d="M523.502 245.579L464.62 272.845C464.62 272.845 421.697 260.147 389.542 258.843C357.387 257.539 340.159 263.191 340.159 263.191L406.638 227.524C406.638 227.524 504.832 215.443 523.502 245.579Z" fill="#F9EDDD"/>
<path opacity="0.55" d="M523.502 245.579L464.62 272.845C464.62 272.845 421.697 260.147 389.542 258.843C357.387 257.539 340.159 263.191 340.159 263.191L406.638 227.524C406.638 227.524 504.832 215.443 523.502 245.579Z" fill="#F3C7A1"/>
<path opacity="0.55" d="M444.035 247.492L361.857 257.165C361.857 257.165 416.748 249.883 467.97 266.626L513.5 236.557L497.123 228.98L444.035 247.492Z" fill="#F3C7A1"/>
<path d="M522.545 224.532L467.014 261.843C467.014 261.843 441.664 255.322 417.706 253.711C367.92 250.362 338.719 264.235 338.719 264.235L415.792 222.14C415.792 222.14 488.077 194.874 522.545 224.532Z" fill="#F9EDDD"/>
<path d="M292.498 168.632C292.498 168.632 323.159 192.244 336.534 256.391" stroke="#F3C7A1" stroke-width="0.5524" stroke-miterlimit="10"/>
<path d="M291.642 168.906C291.642 168.906 325.892 207.394 335.923 255.505" stroke="#F3C7A1" stroke-width="0.5524" stroke-miterlimit="10"/>
<path d="M290.786 169.182C290.786 169.182 328.624 222.545 335.311 254.619" stroke="#F3C7A1" stroke-width="0.5524" stroke-miterlimit="10"/>
<path d="M289.929 169.456C289.929 169.456 331.355 237.695 334.699 253.732" stroke="#F3C7A1" stroke-width="0.5524" stroke-miterlimit="10"/>
<path d="M289.073 169.732L334.088 252.846" stroke="#F3C7A1" stroke-width="0.5524" stroke-miterlimit="10"/>
<path d="M345.712 263.452L352.074 263.089C355.561 262.89 359.06 263.153 362.478 263.872L466.534 285.76L520.868 255.385" stroke="#F3C7A1" stroke-width="0.5524" stroke-miterlimit="10"/>
<path d="M345.659 263.996L356.19 265.909L469.647 290.783L523.262 260.169" stroke="#F3C7A1" stroke-width="0.5524" stroke-miterlimit="10"/>
<path d="M353.51 264.524C356.997 264.325 360.496 264.588 363.914 265.307L467.971 288.63L522.305 258.255" stroke="#F3C7A1" stroke-width="0.5524" stroke-miterlimit="10"/>
<path d="M414.499 224.759C414.499 224.759 470.125 204.202 507.944 224.292" stroke="#F3C7A1" stroke-width="0.5524" stroke-miterlimit="10"/>
<path d="M404.178 230.406C404.178 230.406 461.221 209.846 499.04 229.938" stroke="#F3C7A1" stroke-width="0.5524" stroke-miterlimit="10"/>
<path d="M393.857 236.053C393.857 236.053 452.317 215.491 490.136 235.581" stroke="#F3C7A1" stroke-width="0.5524" stroke-miterlimit="10"/>
<path d="M383.535 241.7C383.535 241.7 443.413 221.136 481.231 241.226" stroke="#F3C7A1" stroke-width="0.5524" stroke-miterlimit="10"/>
<path d="M373.214 247.347C373.214 247.347 434.509 226.78 472.327 246.871" stroke="#F3C7A1" stroke-width="0.5524" stroke-miterlimit="10"/>
<path d="M362.892 252.993C362.892 252.993 425.604 232.424 463.422 252.515" stroke="#F3C7A1" stroke-width="0.5524" stroke-miterlimit="10"/>
<path d="M375.339 147.279C375.339 147.279 408.371 170.718 408.849 219.509" stroke="#F3C7A1" stroke-width="0.5524" stroke-miterlimit="10"/>
<path d="M368.371 149.405C368.371 149.405 401.35 173.322 401.775 223.283" stroke="#F3C7A1" stroke-width="0.5524" stroke-miterlimit="10"/>
<path d="M361.403 151.531C361.403 151.531 394.328 175.927 394.701 227.057" stroke="#F3C7A1" stroke-width="0.5524" stroke-miterlimit="10"/>
<path d="M354.436 153.657C354.436 153.657 387.307 178.531 387.626 230.831" stroke="#F3C7A1" stroke-width="0.5524" stroke-miterlimit="10"/>
<path d="M347.468 155.783C347.468 155.783 380.286 181.135 380.553 234.604" stroke="#F3C7A1" stroke-width="0.5524" stroke-miterlimit="10"/>
<path d="M340.5 157.909C340.5 157.909 373.265 183.74 373.478 238.378" stroke="#F3C7A1" stroke-width="0.5524" stroke-miterlimit="10"/>
<path d="M333.531 160.035C333.531 160.035 366.244 186.344 366.403 242.152" stroke="#F3C7A1" stroke-width="0.5524" stroke-miterlimit="10"/>
<path d="M326.563 162.161C326.563 162.161 359.223 188.948 359.329 245.925" stroke="#F3C7A1" stroke-width="0.5524" stroke-miterlimit="10"/>
<path d="M319.595 164.287C319.595 164.287 352.201 191.553 352.255 249.699" stroke="#F3C7A1" stroke-width="0.5524" stroke-miterlimit="10"/>
<path d="M312.627 166.413C312.627 166.413 345.18 194.157 345.18 253.472" stroke="#F3C7A1" stroke-width="0.5524" stroke-miterlimit="10"/>
<path opacity="0.39" d="M305.562 108.685L307.667 113.446C307.667 113.446 264.237 116.715 252.585 116.379C240.933 116.044 272.133 108.25 272.133 108.25L305.562 108.685Z" fill="#3D6EBE"/>
<path d="M258.853 112.95L253.934 116.072L252.585 116.379L215.115 116.31L215.094 115.209L226.605 115.536L254.024 114.5L258.853 112.95Z" fill="#DA6A2C"/>
<path opacity="0.99" d="M258.853 112.95L253.934 116.072L252.585 116.379L215.115 116.31L215.094 115.209L226.605 115.536L254.024 114.5L258.853 112.95Z" fill="#DA6A2C"/>
<path d="M304.164 101.85L303.469 94.7066L275.632 94.1671L217.188 99.0626L228.212 106.135" fill="#DA6A2C"/>
<path d="M248.961 110.396L249.693 99.7823L301.971 94.5464C305.412 94.2018 308.671 96.1762 309.94 99.3908C310.316 100.343 310.594 101.379 310.681 102.459C311.011 106.594 307.903 110.214 303.774 110.653L252.31 116.385L247.843 109.593" fill="#DA6A2C"/>
<path opacity="0.54" d="M248.961 110.396L249.693 99.7823L301.971 94.5464C305.412 94.2018 308.671 96.1762 309.94 99.3908C310.316 100.343 310.594 101.379 310.681 102.459C311.011 106.594 307.903 110.214 303.774 110.653L252.31 116.385L247.843 109.593" fill="#DA6A2C"/>
<path d="M218.025 99.5961L249.417 99.7883C251.575 99.745 253.607 100.836 254.727 102.68C256.459 105.531 257.989 109.992 254.312 113.992C253.146 115.262 251.484 115.698 249.76 115.679L216.139 115.324C216.139 115.324 224.272 108.829 218.025 99.5961Z" fill="#F9EDDD"/>
<path opacity="0.97" d="M254.727 102.681C253.608 100.837 251.575 99.745 249.417 99.7892L218.025 99.5969C218.554 100.378 218.976 101.139 219.313 101.879L246.708 102.047C248.866 102.004 250.898 103.095 252.018 104.938C253.609 107.557 255.026 111.534 252.399 115.264C253.115 114.996 253.768 114.587 254.312 113.994C257.99 109.993 256.459 105.532 254.727 102.681Z" fill="#F9EDDD"/>
<path d="M255.002 102.675C253.882 100.831 251.85 99.739 249.692 99.7831L218.3 99.59C218.305 99.5978 218.309 99.6048 218.314 99.6117L248.867 99.7996C251.025 99.7563 253.057 100.847 254.177 102.691C255.909 105.542 257.439 110.004 253.762 114.004C252.75 115.105 251.365 115.578 249.89 115.673L250.035 115.674C251.76 115.692 253.421 115.256 254.588 113.987C258.264 109.988 256.734 105.526 255.002 102.675Z" fill="#DA6A2C"/>
<path opacity="0.23" d="M310.68 102.459C310.593 101.379 310.315 100.343 309.939 99.3908C308.67 96.1762 305.412 94.2018 301.97 94.5464L249.692 99.7823C249.692 99.7823 281.206 97.3575 290.956 102.666C295.676 105.236 298.533 108.423 300.227 111.029L303.774 110.652C307.902 110.215 311.011 106.595 310.68 102.459Z" fill="#DA6A2C"/>
<path d="M216.974 99.2038L250.866 99.7321C250.866 99.7321 252.667 100.222 253.583 101.124L252.042 100.776C251.091 100.561 250.118 100.446 249.143 100.434L216.992 100.029L216.974 99.2038Z" fill="#DA6A2C"/>
<path d="M255.002 102.675C254.532 101.901 253.9 101.261 253.166 100.781C253.071 100.712 252.972 100.647 252.871 100.585C251.929 100.013 250.839 99.7321 249.736 99.7147L216.974 99.2038L216.991 100.029L247.562 100.414C248.7 100.428 249.836 100.511 250.962 100.659C252.273 100.831 253.471 101.543 254.162 102.669C254.167 102.676 254.171 102.683 254.175 102.69C255.907 105.541 257.437 110.003 253.76 114.003C252.748 115.104 251.364 115.577 249.889 115.672L250.598 115.679C252.091 115.695 253.543 115.112 254.558 114.018C258.273 110.011 256.739 105.533 255.002 102.675Z" fill="#DA6A2C"/>
<path opacity="0.97" d="M219.767 101.075L251.734 101.532" stroke="#F9EDDD" stroke-width="0.3178" stroke-miterlimit="10"/>
<path opacity="0.97" d="M220.493 102.299L252.723 102.725" stroke="#F9EDDD" stroke-width="0.3178" stroke-miterlimit="10"/>
<path opacity="0.97" d="M220.668 103.535L253.849 103.916" stroke="#F9EDDD" stroke-width="0.3178" stroke-miterlimit="10"/>
<path opacity="0.97" d="M221.119 104.764L254.424 105.119" stroke="#F9EDDD" stroke-width="0.3178" stroke-miterlimit="10"/>
<path opacity="0.97" d="M221.294 105.999L254.448 106.332" stroke="#F9EDDD" stroke-width="0.3178" stroke-miterlimit="10"/>
<path opacity="0.97" d="M221.194 107.24L254.748 107.539" stroke="#F9EDDD" stroke-width="0.3178" stroke-miterlimit="10"/>
<path opacity="0.97" d="M220.818 108.486L254.773 108.752" stroke="#F9EDDD" stroke-width="0.3178" stroke-miterlimit="10"/>
<path opacity="0.97" d="M220.719 109.727L254.522 109.972" stroke="#F9EDDD" stroke-width="0.3178" stroke-miterlimit="10"/>
<path opacity="0.97" d="M220.343 110.974L253.934 111.197" stroke="#F9EDDD" stroke-width="0.3178" stroke-miterlimit="10"/>
<path opacity="0.97" d="M219.967 112.22L253.519 112.419" stroke="#F9EDDD" stroke-width="0.3178" stroke-miterlimit="10"/>
<path opacity="0.97" d="M218.766 113.483L252.555 113.652" stroke="#F9EDDD" stroke-width="0.3178" stroke-miterlimit="10"/>
<path opacity="0.97" d="M218.665 114.724L251.315 114.891" stroke="#F9EDDD" stroke-width="0.3178" stroke-miterlimit="10"/>
<path opacity="0.99" d="M255.002 102.675C254.532 101.901 253.9 101.261 253.166 100.781C253.071 100.712 252.972 100.647 252.871 100.585C251.929 100.013 250.839 99.7321 249.736 99.7147L216.974 99.2038L216.991 100.029L247.562 100.414C248.7 100.428 249.836 100.511 250.962 100.659C252.273 100.831 253.471 101.543 254.162 102.669C254.167 102.676 254.171 102.683 254.175 102.69C255.907 105.541 257.437 110.003 253.76 114.003C252.748 115.104 251.364 115.577 249.889 115.672L250.598 115.679C252.091 115.695 253.543 115.112 254.558 114.018C258.273 110.011 256.739 105.533 255.002 102.675Z" fill="#DA6A2C"/>
<path d="M376.319 295.384L372.798 296.691L314.924 318.169L415.338 295.384L383.83 287.937" fill="#B1CBDB"/>
<path d="M259.296 295.722L246.331 295.639C246.331 295.639 250.183 302.786 248.018 311.829L314.924 318.169L324.432 311.074L323.366 299.127C323.366 299.127 321.3 294.83 320.204 295.024C319.109 295.217 259.296 295.722 259.296 295.722Z" fill="#F9EDDD"/>
<path opacity="0.38" d="M252.989 294.238L246.936 296.584L310.763 304.401C312.068 304.56 312.993 306.229 312.646 307.899C312.16 310.24 310.294 313.095 304.269 313.787L278.542 313.644L316.114 317.696L323.693 307.033L323.671 297.904L305.632 297.438L252.989 294.238Z" fill="#F3C7A1"/>
<path d="M313.851 298.387L316.063 302.874L244.833 296.109L244.32 294.707L314.985 298.56" fill="#3D6EBE"/>
<path d="M322.536 314.395L315.911 316.888L246.677 310.648L246.862 312.481L314.924 318.169L323.341 315" fill="#3D6EBE"/>
<path opacity="0.39" d="M313.851 298.387L316.063 302.874L244.833 296.109L244.32 294.707L314.985 298.56" fill="#3D6EBE"/>
<path opacity="0.39" d="M322.536 314.395L315.911 316.888L246.677 310.648L246.862 312.481L314.924 318.169L323.341 315" fill="#3D6EBE"/>
<path d="M328.152 307.429L314.715 301.407L244.32 294.707L325.519 278.965L389.332 281.857L375.478 290.094L328.152 307.429Z" fill="#3D6EBE"/>
<path d="M314.715 301.407C314.715 301.407 322.217 309.412 314.923 318.169L390.197 297.756C390.197 297.756 399.243 287.942 389.332 281.857L314.715 301.407Z" fill="#3D6EBE"/>
<path d="M314.715 301.407C314.715 301.407 322.217 309.412 314.923 318.169L390.197 297.756C390.197 297.756 399.243 287.942 389.332 281.857L314.715 301.407Z" fill="#3D6EBE"/>
<path opacity="0.11" d="M318.275 300.474C318.706 300.828 331.924 311.479 356.598 306.867L314.923 318.169C322.217 309.412 314.715 301.407 314.715 301.407L318.275 300.474Z" fill="#3D6EBE"/>
<path opacity="0.11" d="M393.112 293.097C391.998 295.801 390.198 297.756 390.198 297.756L370.744 303.032C380.804 299.695 388.079 296.11 393.112 293.097Z" fill="#3D6EBE"/>
<path opacity="0.39" d="M314.715 301.407C314.715 301.407 322.217 309.412 314.923 318.169L390.197 297.756C390.197 297.756 399.243 287.942 389.332 281.857L314.715 301.407Z" fill="#3D6EBE"/>
<path d="M320.024 300.865C320.024 300.865 326.202 307.208 320.959 315.813" stroke="#B1CBDB" stroke-width="0.9579" stroke-miterlimit="10" stroke-linecap="round"/>
<path d="M386.439 283.444C386.439 283.444 392.617 289.788 387.374 298.392" stroke="#B1CBDB" stroke-width="0.9579" stroke-miterlimit="10" stroke-linecap="round"/>
<path opacity="0.97" d="M248.138 297.598L315.125 304.318" stroke="#F9EDDD" stroke-width="0.3066" stroke-miterlimit="10"/>
<path opacity="0.97" d="M248.292 298.956L315.125 305.608" stroke="#F9EDDD" stroke-width="0.3066" stroke-miterlimit="10"/>
<path opacity="0.97" d="M248.446 300.313L315.125 306.897" stroke="#F9EDDD" stroke-width="0.3066" stroke-miterlimit="10"/>
<path opacity="0.97" d="M248.6 301.671L315.125 308.188" stroke="#F9EDDD" stroke-width="0.3066" stroke-miterlimit="10"/>
<path opacity="0.97" d="M248.753 303.029L315.124 309.477" stroke="#F9EDDD" stroke-width="0.3066" stroke-miterlimit="10"/>
<path opacity="0.97" d="M248.908 304.386L315.125 310.767" stroke="#F9EDDD" stroke-width="0.3066" stroke-miterlimit="10"/>
<path opacity="0.97" d="M249.062 305.744L315.125 312.057" stroke="#F9EDDD" stroke-width="0.3066" stroke-miterlimit="10"/>
<path opacity="0.97" d="M249.216 307.102L315.125 313.347" stroke="#F9EDDD" stroke-width="0.3066" stroke-miterlimit="10"/>
<path opacity="0.97" d="M249.37 308.459L315.124 314.636" stroke="#F9EDDD" stroke-width="0.3066" stroke-miterlimit="10"/>
<path opacity="0.97" d="M249.524 309.817L315.125 315.925" stroke="#F9EDDD" stroke-width="0.3066" stroke-miterlimit="10"/>
<path d="M269.211 113.594C268.684 113.642 268.226 113.616 267.838 113.514C267.449 113.416 267.12 113.269 266.852 113.073C266.587 112.88 266.371 112.667 266.205 112.434L267.028 111.744C267.137 111.865 267.272 112.001 267.435 112.154C267.599 112.31 267.816 112.438 268.087 112.537C268.361 112.639 268.712 112.671 269.14 112.632C269.713 112.58 270.175 112.398 270.527 112.086C270.879 111.775 271.034 111.323 270.99 110.731L270.884 109.288L270.792 109.296C270.721 109.433 270.619 109.604 270.485 109.808C270.354 110.01 270.157 110.197 269.894 110.37C269.634 110.54 269.273 110.645 268.811 110.688C268.238 110.74 267.714 110.651 267.238 110.421C266.765 110.191 266.378 109.829 266.075 109.335C265.775 108.841 265.598 108.224 265.543 107.484C265.49 106.756 265.571 106.11 265.787 105.547C266.002 104.981 266.327 104.529 266.761 104.192C267.195 103.851 267.711 103.654 268.308 103.599C268.77 103.557 269.142 103.601 269.424 103.73C269.71 103.856 269.932 104.01 270.091 104.191C270.253 104.369 270.378 104.516 270.467 104.632L270.578 104.622L270.495 103.493L271.548 103.397L272.086 110.706C272.131 111.316 272.029 111.825 271.78 112.233C271.534 112.643 271.185 112.959 270.733 113.181C270.285 113.405 269.777 113.543 269.211 113.594ZM268.886 109.693C269.324 109.654 269.686 109.52 269.973 109.292C270.26 109.064 270.468 108.754 270.598 108.364C270.727 107.973 270.772 107.516 270.734 106.992C270.696 106.48 270.586 106.035 270.403 105.657C270.22 105.28 269.97 104.994 269.652 104.799C269.334 104.605 268.953 104.528 268.509 104.568C268.048 104.61 267.671 104.762 267.381 105.025C267.093 105.287 266.887 105.623 266.762 106.031C266.64 106.44 266.597 106.885 266.632 107.366C266.668 107.859 266.777 108.288 266.959 108.654C267.144 109.016 267.397 109.291 267.717 109.479C268.041 109.663 268.431 109.735 268.886 109.693ZM274.066 110.32L273.544 103.215L274.597 103.119L274.676 104.192L274.75 104.185C274.853 103.822 275.066 103.516 275.389 103.266C275.711 103.016 276.085 102.872 276.51 102.833C276.59 102.826 276.69 102.818 276.811 102.81C276.931 102.802 277.022 102.799 277.084 102.799L277.166 103.909C277.128 103.903 277.043 103.897 276.909 103.891C276.778 103.881 276.64 103.883 276.495 103.896C276.15 103.927 275.848 104.028 275.587 104.198C275.33 104.364 275.132 104.581 274.994 104.848C274.858 105.112 274.802 105.404 274.826 105.725L275.156 110.221L274.066 110.32ZM281.006 109.855C280.556 109.896 280.142 109.849 279.763 109.712C279.384 109.573 279.075 109.351 278.835 109.047C278.596 108.74 278.459 108.355 278.425 107.892C278.395 107.485 278.451 107.148 278.592 106.881C278.734 106.61 278.933 106.39 279.19 106.221C279.447 106.051 279.735 105.917 280.053 105.816C280.374 105.712 280.698 105.624 281.024 105.551C281.451 105.456 281.798 105.382 282.063 105.33C282.332 105.275 282.526 105.206 282.644 105.124C282.765 105.041 282.819 104.912 282.806 104.736L282.803 104.699C282.769 104.243 282.619 103.9 282.351 103.669C282.086 103.439 281.702 103.347 281.2 103.393C280.68 103.44 280.28 103.591 280.001 103.846C279.722 104.102 279.533 104.364 279.432 104.634L278.37 104.358C278.523 103.91 278.744 103.551 279.034 103.283C279.328 103.011 279.654 102.81 280.013 102.681C280.376 102.549 280.735 102.466 281.092 102.434C281.32 102.413 281.584 102.417 281.884 102.445C282.186 102.471 282.482 102.554 282.772 102.695C283.064 102.836 283.315 103.066 283.525 103.385C283.734 103.705 283.86 104.147 283.901 104.711L284.246 109.392L283.155 109.492L283.085 108.529L283.029 108.534C282.967 108.695 282.856 108.872 282.696 109.063C282.537 109.255 282.318 109.425 282.041 109.575C281.764 109.724 281.419 109.818 281.006 109.855ZM281.1 108.859C281.531 108.82 281.888 108.702 282.172 108.506C282.458 108.309 282.666 108.069 282.798 107.787C282.932 107.505 282.988 107.216 282.966 106.92L282.893 105.921C282.851 105.98 282.753 106.04 282.599 106.101C282.448 106.158 282.273 106.213 282.072 106.265C281.874 106.315 281.68 106.36 281.491 106.402C281.305 106.441 281.154 106.473 281.038 106.499C280.758 106.562 280.497 106.646 280.257 106.752C280.02 106.855 279.831 106.994 279.693 107.172C279.557 107.345 279.499 107.571 279.519 107.849C279.547 108.228 279.708 108.502 280.003 108.671C280.3 108.836 280.666 108.899 281.1 108.859ZM286.235 109.211L285.713 102.106L286.766 102.01L286.847 103.12L286.94 103.111C287.06 102.719 287.277 102.402 287.591 102.163C287.905 101.92 288.293 101.777 288.754 101.735C289.222 101.693 289.62 101.763 289.947 101.948C290.276 102.129 290.543 102.401 290.746 102.764L290.82 102.758C290.975 102.374 291.226 102.058 291.573 101.809C291.92 101.557 292.348 101.408 292.856 101.361C293.491 101.303 294.024 101.455 294.457 101.816C294.889 102.174 295.136 102.771 295.198 103.607L295.547 108.362L294.457 108.461L294.107 103.706C294.069 103.182 293.898 102.82 293.595 102.621C293.292 102.422 292.947 102.34 292.559 102.376C292.06 102.421 291.685 102.607 291.433 102.935C291.181 103.259 291.072 103.651 291.105 104.11L291.446 108.736L290.337 108.837L289.979 103.971C289.949 103.567 289.795 103.253 289.515 103.03C289.235 102.804 288.888 102.71 288.475 102.748C288.192 102.774 287.933 102.873 287.698 103.047C287.466 103.22 287.284 103.448 287.153 103.73C287.024 104.009 286.973 104.322 286.999 104.671L287.325 109.111L286.235 109.211ZM267.314 127L266.791 119.895L267.844 119.799L267.926 120.909L268.018 120.9C268.138 120.507 268.355 120.191 268.669 119.951C268.983 119.709 269.371 119.566 269.833 119.524C270.301 119.481 270.698 119.552 271.025 119.737C271.354 119.918 271.621 120.19 271.824 120.553L271.898 120.547C272.053 120.163 272.304 119.847 272.651 119.598C272.999 119.346 273.426 119.196 273.934 119.15C274.569 119.092 275.102 119.244 275.535 119.605C275.967 119.963 276.214 120.56 276.276 121.395L276.626 126.151L275.536 126.25L275.186 121.495C275.147 120.971 274.976 120.609 274.674 120.41C274.371 120.211 274.025 120.129 273.637 120.164C273.138 120.21 272.763 120.396 272.511 120.724C272.259 121.048 272.15 121.439 272.184 121.899L272.524 126.525L271.415 126.626L271.057 121.759C271.028 121.355 270.873 121.042 270.593 120.819C270.313 120.593 269.966 120.499 269.554 120.537C269.271 120.563 269.011 120.662 268.776 120.836C268.544 121.009 268.362 121.237 268.231 121.519C268.103 121.798 268.051 122.111 268.077 122.46L268.404 126.9L267.314 127ZM281.604 125.846C280.921 125.908 280.32 125.811 279.802 125.554C279.287 125.293 278.875 124.903 278.567 124.381C278.262 123.856 278.083 123.23 278.029 122.502C277.975 121.775 278.061 121.121 278.285 120.542C278.512 119.959 278.852 119.49 279.307 119.135C279.764 118.777 280.313 118.569 280.953 118.51C281.323 118.477 281.692 118.505 282.062 118.596C282.431 118.686 282.774 118.857 283.09 119.107C283.405 119.355 283.668 119.697 283.877 120.134C284.086 120.572 284.214 121.122 284.263 121.785L284.297 122.248L278.828 122.746L278.759 121.802L283.119 121.405C283.09 121.004 282.983 120.654 282.8 120.354C282.62 120.053 282.377 119.826 282.071 119.67C281.768 119.515 281.42 119.455 281.025 119.491C280.591 119.531 280.223 119.673 279.922 119.918C279.624 120.159 279.402 120.459 279.258 120.816C279.114 121.174 279.056 121.549 279.085 121.94L279.131 122.569C279.171 123.106 279.297 123.552 279.509 123.909C279.724 124.262 280.005 124.52 280.352 124.684C280.698 124.845 281.092 124.905 281.532 124.865C281.819 124.839 282.074 124.775 282.299 124.674C282.527 124.57 282.72 124.428 282.877 124.249C283.034 124.067 283.15 123.848 283.224 123.593L284.299 123.793C284.215 124.161 284.052 124.493 283.81 124.788C283.568 125.08 283.26 125.319 282.886 125.506C282.512 125.689 282.085 125.802 281.604 125.846ZM286.19 125.279L285.667 118.174L286.72 118.078L286.799 119.151L286.873 119.144C286.976 118.781 287.189 118.474 287.512 118.224C287.835 117.975 288.208 117.83 288.633 117.792C288.713 117.784 288.814 117.777 288.934 117.769C289.054 117.761 289.146 117.757 289.208 117.758L289.289 118.868C289.252 118.862 289.166 118.856 289.032 118.85C288.901 118.84 288.763 118.841 288.619 118.855C288.274 118.886 287.971 118.987 287.711 119.156C287.453 119.323 287.255 119.539 287.117 119.806C286.981 120.07 286.925 120.363 286.949 120.683L287.28 125.18L286.19 125.279Z" fill="white"/>
<path d="M280.301 141.495C280.16 141.188 279.99 140.925 279.789 140.704C279.591 140.48 279.363 140.304 279.106 140.176C278.852 140.047 278.57 139.97 278.26 139.946C277.951 139.923 277.618 139.956 277.261 140.046C276.675 140.193 276.159 140.482 275.711 140.913C275.264 141.344 274.929 141.897 274.708 142.572C274.487 143.247 274.422 144.024 274.512 144.902C274.602 145.78 274.821 146.484 275.17 147.016C275.518 147.548 275.953 147.908 276.474 148.095C276.994 148.282 277.561 148.299 278.172 148.145C278.738 148.002 279.224 147.753 279.63 147.397C280.038 147.037 280.34 146.599 280.534 146.083C280.732 145.562 280.799 144.992 280.735 144.372L281.11 144.359L278.137 145.107L278.025 144.018L281.789 143.07L281.901 144.159C281.987 144.994 281.888 145.764 281.604 146.469C281.323 147.173 280.896 147.771 280.323 148.264C279.752 148.753 279.075 149.096 278.29 149.293C277.415 149.514 276.624 149.496 275.918 149.24C275.215 148.984 274.638 148.513 274.189 147.827C273.742 147.14 273.463 146.262 273.354 145.193C273.271 144.391 273.302 143.644 273.445 142.951C273.591 142.254 273.834 141.631 274.174 141.081C274.514 140.532 274.935 140.071 275.438 139.697C275.941 139.323 276.509 139.057 277.143 138.897C277.664 138.766 278.158 138.725 278.625 138.773C279.095 138.817 279.522 138.942 279.906 139.146C280.293 139.347 280.626 139.62 280.906 139.966C281.186 140.309 281.396 140.715 281.536 141.184L280.301 141.495ZM287.233 147.063C286.564 147.232 285.96 147.216 285.421 147.016C284.886 146.816 284.446 146.458 284.103 145.941C283.763 145.424 283.552 144.773 283.472 143.988C283.39 143.196 283.459 142.469 283.678 141.808C283.901 141.146 284.246 140.588 284.715 140.135C285.186 139.681 285.757 139.37 286.426 139.202C287.095 139.034 287.697 139.05 288.233 139.25C288.771 139.45 289.211 139.81 289.552 140.33C289.895 140.849 290.108 141.505 290.189 142.297C290.27 143.083 290.199 143.805 289.976 144.463C289.757 145.121 289.411 145.677 288.94 146.131C288.471 146.584 287.902 146.895 287.233 147.063ZM287.125 146.014C287.634 145.886 288.038 145.647 288.339 145.297C288.64 144.947 288.846 144.534 288.959 144.059C289.072 143.584 289.103 143.092 289.05 142.584C288.998 142.076 288.871 141.622 288.668 141.223C288.465 140.823 288.186 140.53 287.83 140.342C287.474 140.154 287.042 140.124 286.534 140.251C286.025 140.379 285.621 140.62 285.32 140.973C285.02 141.326 284.814 141.742 284.701 142.221C284.589 142.699 284.558 143.193 284.611 143.701C284.663 144.209 284.79 144.661 284.992 145.057C285.195 145.453 285.474 145.744 285.829 145.928C286.185 146.113 286.617 146.142 287.125 146.014ZM295.342 145.023C294.673 145.191 294.069 145.175 293.53 144.976C292.995 144.775 292.555 144.417 292.212 143.901C291.872 143.384 291.661 142.733 291.58 141.947C291.499 141.155 291.568 140.428 291.787 139.767C292.01 139.105 292.355 138.548 292.823 138.095C293.295 137.641 293.865 137.33 294.535 137.161C295.204 136.993 295.806 137.009 296.342 137.209C296.88 137.409 297.32 137.769 297.66 138.289C298.004 138.809 298.217 139.465 298.298 140.257C298.379 141.042 298.308 141.764 298.085 142.423C297.865 143.081 297.52 143.637 297.048 144.09C296.58 144.544 296.011 144.854 295.342 145.023ZM295.234 143.973C295.743 143.845 296.147 143.606 296.448 143.256C296.749 142.906 296.955 142.494 297.068 142.019C297.181 141.543 297.211 141.052 297.159 140.543C297.107 140.035 296.98 139.581 296.777 139.182C296.574 138.783 296.295 138.489 295.939 138.301C295.583 138.113 295.151 138.083 294.642 138.211C294.134 138.339 293.73 138.579 293.429 138.933C293.129 139.286 292.922 139.702 292.81 140.18C292.697 140.659 292.667 141.152 292.719 141.661C292.772 142.169 292.899 142.621 293.101 143.017C293.304 143.413 293.583 143.703 293.938 143.888C294.294 144.073 294.726 144.101 295.234 143.973ZM303.239 143.035C302.621 143.191 302.059 143.168 301.553 142.967C301.047 142.763 300.63 142.4 300.303 141.88C299.975 141.356 299.77 140.692 299.687 139.887C299.605 139.088 299.668 138.361 299.874 137.707C300.081 137.052 300.406 136.505 300.849 136.065C301.293 135.625 301.826 135.326 302.45 135.169C302.933 135.048 303.323 135.035 303.62 135.129C303.919 135.22 304.154 135.35 304.323 135.521C304.495 135.687 304.63 135.826 304.727 135.937L304.824 135.913L304.44 132.17L305.578 131.884L306.62 142.022L305.519 142.299L305.399 141.131L305.264 141.165C305.195 141.324 305.094 141.529 304.961 141.779C304.828 142.026 304.627 142.268 304.357 142.505C304.088 142.739 303.715 142.916 303.239 143.035ZM303.285 141.947C303.742 141.832 304.116 141.613 304.406 141.289C304.696 140.962 304.9 140.561 305.02 140.084C305.139 139.603 305.169 139.076 305.11 138.502C305.051 137.934 304.92 137.458 304.715 137.073C304.51 136.684 304.238 136.411 303.898 136.252C303.558 136.091 303.157 136.068 302.693 136.185C302.211 136.306 301.822 136.535 301.526 136.87C301.233 137.201 301.029 137.603 300.912 138.075C300.799 138.544 300.769 139.046 300.824 139.58C300.88 140.122 301.011 140.593 301.217 140.995C301.426 141.393 301.703 141.682 302.049 141.862C302.397 142.039 302.809 142.067 303.285 141.947ZM309.533 136.597L310.003 141.171L308.864 141.457L308.083 133.854L309.183 133.577L309.305 134.765L309.402 134.741C309.536 134.311 309.768 133.934 310.098 133.611C310.427 133.284 310.872 133.05 311.432 132.909C311.933 132.783 312.383 132.778 312.782 132.895C313.179 133.008 313.505 133.251 313.758 133.624C314.01 133.994 314.17 134.502 314.236 135.149L314.732 139.981L313.593 140.267L313.105 135.515C313.044 134.918 312.845 134.49 312.508 134.233C312.171 133.973 311.739 133.909 311.211 134.041C310.848 134.133 310.531 134.296 310.261 134.529C309.995 134.762 309.795 135.054 309.663 135.406C309.531 135.758 309.488 136.154 309.533 136.597ZM316.813 139.457L316.032 131.853L317.171 131.567L317.952 139.17L316.813 139.457ZM316.481 130.44C316.259 130.496 316.06 130.467 315.883 130.352C315.71 130.236 315.612 130.07 315.589 129.852C315.567 129.634 315.627 129.428 315.768 129.233C315.913 129.038 316.097 128.912 316.319 128.856C316.541 128.8 316.738 128.83 316.912 128.945C317.089 129.06 317.188 129.226 317.211 129.444C317.233 129.662 317.172 129.869 317.027 130.064C316.885 130.259 316.703 130.384 316.481 130.44ZM323.34 140.902C322.79 141.041 322.309 141.087 321.898 141.042C321.488 140.999 321.139 140.894 320.851 140.726C320.567 140.561 320.334 140.365 320.152 140.14L320.993 139.258C321.11 139.371 321.256 139.497 321.432 139.635C321.609 139.777 321.84 139.88 322.127 139.943C322.418 140.009 322.787 139.985 323.234 139.873C323.832 139.722 324.311 139.449 324.67 139.054C325.029 138.659 325.175 138.145 325.11 137.511L324.952 135.967L324.855 135.991C324.786 136.151 324.684 136.352 324.551 136.596C324.42 136.835 324.22 137.07 323.95 137.3C323.683 137.527 323.308 137.701 322.825 137.822C322.227 137.973 321.675 137.963 321.169 137.792C320.666 137.621 320.248 137.293 319.914 136.808C319.584 136.322 319.378 135.683 319.296 134.891C319.216 134.112 319.28 133.401 319.488 132.756C319.695 132.108 320.021 131.566 320.464 131.129C320.908 130.689 321.441 130.39 322.066 130.233C322.548 130.112 322.94 130.098 323.24 130.192C323.543 130.281 323.78 130.411 323.953 130.581C324.128 130.747 324.265 130.885 324.362 130.996L324.478 130.967L324.354 129.759L325.454 129.482L326.257 137.304C326.324 137.957 326.234 138.525 325.987 139.007C325.743 139.492 325.388 139.891 324.922 140.205C324.459 140.521 323.932 140.753 323.34 140.902ZM322.872 136.734C323.329 136.619 323.704 136.414 323.997 136.121C324.29 135.827 324.498 135.458 324.621 135.014C324.744 134.57 324.776 134.068 324.719 133.506C324.662 132.959 324.532 132.495 324.328 132.117C324.125 131.738 323.853 131.47 323.513 131.311C323.173 131.153 322.772 131.132 322.309 131.249C321.826 131.37 321.437 131.597 321.141 131.929C320.848 132.26 320.643 132.657 320.525 133.119C320.411 133.582 320.38 134.07 320.433 134.585C320.488 135.113 320.616 135.56 320.818 135.925C321.024 136.286 321.298 136.543 321.64 136.693C321.985 136.84 322.396 136.854 322.872 136.734ZM328.989 131.701L329.459 136.275L328.32 136.561L327.278 126.423L328.417 126.136L328.8 129.859L328.896 129.835C329.03 129.398 329.258 129.021 329.582 128.702C329.909 128.38 330.363 128.145 330.945 127.999C331.451 127.872 331.904 127.864 332.305 127.977C332.705 128.086 333.032 128.327 333.285 128.7C333.541 129.069 333.702 129.58 333.769 130.234L334.265 135.065L333.127 135.352L332.638 130.599C332.576 129.995 332.376 129.567 332.036 129.314C331.699 129.057 331.262 128.996 330.725 129.131C330.352 129.225 330.026 129.39 329.746 129.626C329.47 129.861 329.263 130.156 329.124 130.509C328.989 130.861 328.944 131.258 328.989 131.701ZM338.792 126.126L338.893 127.116L335.052 128.083L334.95 127.093L338.792 126.126ZM335.883 124.989L337.022 124.702L337.766 131.95C337.8 132.28 337.872 132.516 337.982 132.657C338.096 132.795 338.229 132.873 338.383 132.892C338.539 132.906 338.701 132.893 338.869 132.851C338.994 132.819 339.096 132.786 339.175 132.753C339.254 132.716 339.317 132.687 339.364 132.665L339.704 133.656C339.63 133.705 339.525 133.762 339.39 133.827C339.255 133.894 339.081 133.955 338.869 134.008C338.547 134.089 338.224 134.098 337.901 134.034C337.581 133.969 337.304 133.816 337.072 133.577C336.843 133.337 336.705 132.995 336.66 132.553L335.883 124.989ZM280.487 159.893L279.495 160.447C279.413 160.289 279.3 160.143 279.158 160.009C279.018 159.872 278.837 159.775 278.613 159.72C278.39 159.664 278.112 159.678 277.781 159.762C277.327 159.876 276.96 160.078 276.68 160.369C276.402 160.655 276.28 160.962 276.314 161.289C276.344 161.579 276.47 161.782 276.693 161.899C276.917 162.015 277.253 162.075 277.702 162.077L278.831 162.077C279.51 162.075 280.03 162.204 280.39 162.462C280.749 162.717 280.956 163.11 281.011 163.641C281.056 164.077 280.974 164.497 280.764 164.902C280.558 165.306 280.248 165.661 279.834 165.969C279.42 166.276 278.925 166.502 278.349 166.647C277.593 166.837 276.95 166.826 276.42 166.614C275.89 166.402 275.526 165.99 275.328 165.376L276.38 164.827C276.525 165.21 276.751 165.468 277.059 165.601C277.369 165.732 277.758 165.739 278.224 165.622C278.755 165.488 279.165 165.267 279.453 164.957C279.744 164.644 279.873 164.323 279.84 163.997C279.813 163.733 279.7 163.534 279.501 163.401C279.302 163.265 279.012 163.2 278.629 163.204L277.364 163.218C276.668 163.224 276.143 163.094 275.789 162.827C275.437 162.557 275.235 162.159 275.181 161.635C275.137 161.206 275.215 160.796 275.416 160.407C275.62 160.017 275.917 159.677 276.307 159.386C276.699 159.094 277.156 158.883 277.677 158.752C278.411 158.567 279.003 158.587 279.456 158.812C279.911 159.036 280.255 159.396 280.487 159.893ZM285.386 156.913L285.488 157.903L281.646 158.87L281.544 157.88L285.386 156.913ZM282.477 155.777L283.616 155.49L284.36 162.737C284.394 163.067 284.466 163.303 284.576 163.445C284.69 163.582 284.823 163.66 284.977 163.679C285.133 163.694 285.295 163.68 285.463 163.638C285.588 163.606 285.69 163.574 285.77 163.541C285.848 163.504 285.911 163.474 285.959 163.452L286.298 164.444C286.224 164.493 286.119 164.549 285.984 164.614C285.849 164.682 285.675 164.742 285.463 164.796C285.141 164.877 284.818 164.885 284.495 164.821C284.175 164.756 283.898 164.604 283.666 164.364C283.437 164.124 283.299 163.783 283.254 163.341L282.477 155.777ZM290.828 163.507C290.159 163.675 289.555 163.659 289.016 163.46C288.481 163.259 288.041 162.901 287.698 162.385C287.358 161.868 287.147 161.217 287.067 160.431C286.985 159.639 287.054 158.912 287.273 158.251C287.496 157.589 287.841 157.032 288.31 156.579C288.781 156.125 289.352 155.814 290.021 155.645C290.69 155.477 291.292 155.493 291.828 155.693C292.366 155.893 292.806 156.253 293.147 156.773C293.49 157.293 293.703 157.949 293.784 158.741C293.865 159.526 293.794 160.248 293.571 160.907C293.352 161.565 293.006 162.121 292.534 162.575C292.066 163.028 291.497 163.338 290.828 163.507ZM290.72 162.457C291.229 162.329 291.633 162.09 291.934 161.74C292.235 161.391 292.441 160.978 292.554 160.503C292.667 160.027 292.698 159.536 292.645 159.027C292.593 158.519 292.466 158.065 292.263 157.666C292.06 157.267 291.781 156.973 291.425 156.785C291.069 156.597 290.637 156.567 290.129 156.695C289.62 156.823 289.216 157.063 288.915 157.417C288.615 157.77 288.409 158.186 288.296 158.664C288.183 159.143 288.153 159.636 288.206 160.145C288.258 160.653 288.385 161.105 288.587 161.501C288.79 161.897 289.069 162.187 289.424 162.372C289.78 162.557 290.212 162.585 290.72 162.457ZM295.909 162.065L295.128 154.462L296.229 154.185L296.347 155.333L296.424 155.314C296.52 154.904 296.733 154.537 297.063 154.213C297.393 153.89 297.78 153.672 298.224 153.561C298.308 153.54 298.412 153.515 298.538 153.487C298.664 153.459 298.759 153.44 298.825 153.43L298.947 154.618C298.907 154.618 298.817 154.625 298.677 154.64C298.539 154.651 298.395 154.676 298.243 154.714C297.883 154.804 297.569 154.963 297.302 155.189C297.038 155.412 296.838 155.679 296.701 155.991C296.568 156.298 296.519 156.624 296.554 156.967L297.048 161.779L295.909 162.065ZM300.966 160.793L300.185 153.189L301.324 152.903L302.105 160.506L300.966 160.793ZM300.634 151.776C300.412 151.832 300.212 151.803 300.036 151.688C299.862 151.573 299.764 151.406 299.742 151.188C299.719 150.97 299.779 150.764 299.921 150.569C300.066 150.374 300.249 150.248 300.471 150.192C300.693 150.136 300.891 150.166 301.064 150.281C301.241 150.396 301.341 150.562 301.363 150.78C301.385 150.998 301.324 151.205 301.179 151.4C301.038 151.595 300.856 151.72 300.634 151.776ZM307.315 159.358C306.601 159.538 305.968 159.531 305.417 159.338C304.868 159.141 304.424 158.785 304.084 158.271C303.747 157.754 303.539 157.105 303.459 156.326C303.379 155.548 303.447 154.826 303.662 154.163C303.881 153.495 304.222 152.932 304.687 152.473C305.154 152.01 305.722 151.694 306.392 151.526C306.778 151.429 307.166 151.399 307.556 151.436C307.946 151.473 308.31 151.602 308.65 151.821C308.989 152.037 309.275 152.364 309.508 152.803C309.741 153.242 309.894 153.817 309.967 154.526L310.018 155.021L304.304 156.459L304.2 155.449L308.756 154.303C308.712 153.874 308.589 153.512 308.387 153.217C308.189 152.922 307.926 152.715 307.601 152.598C307.278 152.479 306.911 152.472 306.499 152.575C306.046 152.689 305.665 152.904 305.358 153.218C305.053 153.528 304.831 153.889 304.691 154.3C304.552 154.711 304.504 155.126 304.547 155.545L304.616 156.218C304.675 156.792 304.822 157.255 305.056 157.606C305.293 157.952 305.595 158.186 305.964 158.306C306.333 158.423 306.747 158.424 307.207 158.308C307.506 158.233 307.772 158.122 308.005 157.976C308.24 157.825 308.437 157.64 308.596 157.42C308.755 157.198 308.869 156.942 308.938 156.654L310.071 156.694C309.995 157.106 309.835 157.491 309.591 157.851C309.347 158.207 309.032 158.516 308.647 158.779C308.261 159.039 307.817 159.232 307.315 159.358ZM316.745 150.769L315.752 151.323C315.67 151.165 315.558 151.019 315.415 150.885C315.276 150.748 315.094 150.651 314.871 150.596C314.647 150.54 314.37 150.554 314.038 150.637C313.585 150.752 313.218 150.954 312.937 151.245C312.66 151.531 312.538 151.838 312.571 152.164C312.601 152.455 312.728 152.658 312.951 152.775C313.174 152.891 313.51 152.951 313.959 152.953L315.088 152.953C315.768 152.951 316.288 153.08 316.648 153.338C317.007 153.593 317.214 153.986 317.269 154.517C317.313 154.953 317.231 155.373 317.022 155.778C316.816 156.182 316.506 156.537 316.092 156.844C315.678 157.152 315.183 157.378 314.607 157.523C313.851 157.713 313.208 157.702 312.678 157.49C312.148 157.278 311.784 156.866 311.585 156.252L312.638 155.703C312.783 156.086 313.009 156.344 313.316 156.476C313.627 156.608 314.015 156.615 314.482 156.498C315.013 156.364 315.422 156.143 315.711 155.833C316.002 155.52 316.131 155.199 316.097 154.873C316.07 154.609 315.957 154.41 315.759 154.277C315.56 154.141 315.269 154.075 314.887 154.08L313.621 154.094C312.925 154.1 312.4 153.97 312.046 153.703C311.695 153.433 311.492 153.035 311.439 152.51C311.395 152.081 311.473 151.672 311.674 151.283C311.878 150.893 312.175 150.553 312.564 150.262C312.957 149.97 313.413 149.759 313.935 149.628C314.668 149.443 315.261 149.463 315.713 149.688C316.169 149.912 316.513 150.272 316.745 150.769Z" fill="white"/>
<path d="M184.662 222.697L184.678 205.388L186.764 205.589L186.75 221.038L194.759 221.809L194.758 223.668L184.662 222.697ZM197.719 223.953L197.731 210.971L199.716 211.162L199.704 224.144L197.719 223.953ZM198.742 208.905C198.355 208.867 198.021 208.703 197.741 208.411C197.467 208.12 197.33 207.788 197.33 207.416C197.33 207.044 197.468 206.739 197.743 206.501C198.024 206.263 198.357 206.163 198.744 206.2C199.131 206.237 199.462 206.401 199.737 206.693C200.017 206.985 200.157 207.316 200.157 207.688C200.156 208.06 200.016 208.365 199.735 208.603C199.46 208.841 199.129 208.942 198.742 208.905ZM208.972 212.052L208.971 213.743L202.274 213.099L202.276 211.408L208.972 212.052ZM204.23 208.486L206.216 208.677L206.204 221.05C206.204 221.613 206.285 222.044 206.447 222.341C206.615 222.633 206.828 222.84 207.086 222.96C207.35 223.076 207.627 223.148 207.919 223.176C208.138 223.197 208.317 223.203 208.457 223.194C208.598 223.179 208.71 223.167 208.794 223.159L209.196 224.989C209.061 225.027 208.874 225.06 208.632 225.087C208.391 225.12 208.085 225.119 207.715 225.083C207.154 225.029 206.605 224.855 206.067 224.561C205.534 224.268 205.091 223.856 204.738 223.326C204.391 222.797 204.218 222.155 204.219 221.4L204.23 208.486ZM211.947 225.321L211.959 212.34L213.877 212.524L213.875 214.485L214.01 214.498C214.246 213.878 214.673 213.398 215.29 213.057C215.907 212.717 216.603 212.583 217.377 212.658C217.523 212.672 217.705 212.692 217.924 212.719C218.142 212.746 218.308 212.77 218.42 212.792L218.418 214.82C218.351 214.797 218.197 214.757 217.955 214.7C217.72 214.638 217.47 214.594 217.207 214.569C216.579 214.508 216.018 214.587 215.524 214.804C215.036 215.016 214.648 215.34 214.362 215.774C214.081 216.204 213.94 216.711 213.94 217.297L213.932 225.512L211.947 225.321ZM225.786 226.923C224.541 226.803 223.467 226.424 222.565 225.785C221.668 225.141 220.976 224.296 220.489 223.252C220.007 222.203 219.767 221.013 219.768 219.684C219.77 218.354 220.012 217.205 220.495 216.237C220.984 215.264 221.663 214.535 222.533 214.05C223.409 213.559 224.43 213.37 225.596 213.482C226.269 213.547 226.934 213.724 227.59 214.012C228.246 214.301 228.843 214.724 229.381 215.283C229.919 215.836 230.347 216.543 230.666 217.402C230.985 218.261 231.144 219.296 231.143 220.507L231.142 221.352L221.181 220.394L221.183 218.67L229.124 219.434C229.125 218.702 228.98 218.034 228.689 217.431C228.403 216.829 227.994 216.336 227.462 215.952C226.935 215.569 226.312 215.343 225.594 215.274C224.804 215.198 224.119 215.329 223.541 215.668C222.969 216.002 222.528 216.467 222.219 217.062C221.91 217.658 221.755 218.314 221.755 219.029L221.753 220.179C221.753 221.159 221.92 222.007 222.256 222.721C222.598 223.43 223.071 223.991 223.676 224.404C224.282 224.812 224.986 225.054 225.788 225.131C226.309 225.181 226.78 225.153 227.201 225.047C227.627 224.936 227.995 224.746 228.304 224.477C228.613 224.203 228.851 223.848 229.02 223.414L230.938 224.139C230.735 224.773 230.395 225.315 229.918 225.765C229.441 226.21 228.852 226.536 228.15 226.745C227.449 226.948 226.661 227.007 225.786 226.923ZM234.157 227.458L234.169 214.476L236.087 214.66L236.085 216.621L236.22 216.634C236.456 216.014 236.882 215.534 237.5 215.194C238.117 214.853 238.813 214.72 239.587 214.794C239.733 214.808 239.915 214.829 240.134 214.855C240.352 214.882 240.518 214.906 240.63 214.928L240.628 216.957C240.561 216.933 240.407 216.893 240.165 216.836C239.93 216.774 239.68 216.73 239.417 216.705C238.789 216.645 238.228 216.723 237.734 216.94C237.246 217.153 236.858 217.476 236.572 217.911C236.291 218.34 236.15 218.848 236.15 219.434L236.142 227.649L234.157 227.458ZM246.774 228.976C245.955 228.897 245.212 228.67 244.545 228.296C243.878 227.917 243.348 227.412 242.956 226.783C242.564 226.148 242.368 225.407 242.369 224.562C242.37 223.819 242.516 223.23 242.808 222.796C243.1 222.356 243.49 222.027 243.979 221.809C244.467 221.592 245.005 221.446 245.594 221.373C246.189 221.295 246.786 221.246 247.387 221.224C248.172 221.199 248.809 221.184 249.297 221.18C249.79 221.171 250.149 221.113 250.374 221.005C250.604 220.897 250.719 220.683 250.719 220.362L250.719 220.294C250.72 219.46 250.493 218.79 250.04 218.285C249.591 217.779 248.91 217.483 247.996 217.395C247.048 217.304 246.305 217.441 245.766 217.806C245.227 218.171 244.848 218.58 244.629 219.032L242.745 218.175C243.082 217.418 243.532 216.847 244.093 216.462C244.66 216.071 245.277 215.82 245.944 215.71C246.618 215.594 247.279 215.568 247.93 215.631C248.345 215.67 248.822 215.767 249.36 215.92C249.904 216.068 250.428 216.319 250.933 216.672C251.443 217.025 251.866 217.525 252.202 218.171C252.538 218.818 252.705 219.657 252.704 220.688L252.697 229.241L250.711 229.05L250.713 227.292L250.612 227.282C250.477 227.551 250.252 227.831 249.938 228.122C249.624 228.413 249.206 228.646 248.684 228.821C248.162 228.996 247.525 229.048 246.774 228.976ZM247.078 227.213C247.864 227.288 248.525 227.197 249.064 226.939C249.608 226.681 250.018 226.321 250.294 225.857C250.574 225.394 250.715 224.892 250.716 224.351L250.717 222.525C250.633 222.619 250.448 222.694 250.162 222.751C249.881 222.803 249.556 222.842 249.186 222.868C248.821 222.889 248.465 222.906 248.117 222.918C247.775 222.924 247.497 222.931 247.284 222.939C246.768 222.957 246.286 223.02 245.837 223.129C245.394 223.233 245.034 223.421 244.759 223.693C244.49 223.961 244.355 224.348 244.354 224.855C244.354 225.548 244.609 226.096 245.119 226.5C245.634 226.899 246.287 227.137 247.078 227.213ZM261.952 217.148L261.951 218.839L255.254 218.194L255.255 216.504L261.952 217.148ZM257.21 213.582L259.195 213.773L259.184 226.146C259.184 226.709 259.265 227.14 259.427 227.437C259.595 227.729 259.808 227.936 260.066 228.056C260.33 228.172 260.607 228.244 260.899 228.272C261.117 228.293 261.297 228.299 261.437 228.29C261.577 228.275 261.69 228.263 261.774 228.254L262.176 230.085C262.041 230.123 261.853 230.155 261.612 230.183C261.371 230.216 261.065 230.215 260.695 230.179C260.134 230.125 259.585 229.951 259.047 229.657C258.514 229.364 258.071 228.952 257.718 228.422C257.371 227.893 257.198 227.251 257.198 226.496L257.21 213.582ZM192.515 247.147L192.522 239.473L194.508 239.664L194.496 252.645L192.51 252.454L192.512 250.257L192.378 250.244C192.074 250.874 191.603 251.389 190.963 251.79C190.323 252.185 189.515 252.335 188.539 252.241C187.732 252.164 187.014 251.917 186.386 251.502C185.758 251.081 185.265 250.492 184.907 249.737C184.549 248.975 184.37 248.042 184.371 246.938L184.378 238.689L186.364 238.88L186.357 246.994C186.356 247.94 186.619 248.721 187.145 249.335C187.678 249.95 188.356 250.297 189.181 250.376C189.674 250.423 190.176 250.345 190.687 250.14C191.203 249.937 191.635 249.589 191.983 249.099C192.337 248.609 192.514 247.958 192.515 247.147ZM198.132 252.995L198.144 240.013L200.062 240.198L200.06 242.159L200.195 242.172C200.431 241.552 200.858 241.072 201.475 240.731C202.092 240.39 202.788 240.257 203.562 240.332C203.708 240.346 203.89 240.366 204.109 240.393C204.328 240.419 204.493 240.444 204.605 240.466L204.603 242.494C204.536 242.471 204.382 242.431 204.141 242.374C203.905 242.311 203.656 242.268 203.392 242.242C202.764 242.182 202.203 242.26 201.709 242.478C201.221 242.69 200.834 243.013 200.547 243.448C200.266 243.877 200.126 244.385 200.125 244.971L200.118 253.186L198.132 252.995ZM211.971 254.597C210.726 254.477 209.652 254.098 208.75 253.458C207.853 252.814 207.161 251.97 206.674 250.926C206.192 249.877 205.952 248.687 205.954 247.357C205.955 246.028 206.197 244.879 206.68 243.911C207.169 242.938 207.848 242.209 208.718 241.724C209.594 241.233 210.615 241.044 211.781 241.156C212.454 241.221 213.119 241.397 213.775 241.686C214.431 241.974 215.028 242.398 215.566 242.957C216.104 243.51 216.532 244.216 216.851 245.075C217.17 245.934 217.329 246.97 217.328 248.181L217.327 249.026L207.366 248.068L207.368 246.344L215.31 247.108C215.31 246.375 215.165 245.708 214.874 245.105C214.588 244.503 214.179 244.01 213.647 243.626C213.12 243.243 212.498 243.017 211.78 242.948C210.989 242.872 210.304 243.003 209.726 243.342C209.154 243.676 208.713 244.14 208.404 244.736C208.095 245.332 207.94 245.988 207.94 246.703L207.939 247.853C207.938 248.833 208.105 249.68 208.441 250.394C208.783 251.103 209.256 251.665 209.862 252.078C210.467 252.485 211.171 252.728 211.973 252.805C212.494 252.855 212.966 252.827 213.386 252.721C213.813 252.61 214.18 252.42 214.489 252.151C214.798 251.876 215.036 251.522 215.205 251.087L217.123 251.813C216.92 252.447 216.58 252.989 216.103 253.439C215.626 253.883 215.037 254.21 214.336 254.418C213.634 254.621 212.846 254.681 211.971 254.597Z" fill="white"/>
<path d="M334.87 290.233L326.453 292.922L325.151 292.768L326.466 292.348L326.352 292.334C325.719 292.456 325.075 292.533 324.419 292.564C323.76 292.596 323.145 292.579 322.573 292.511C321.994 292.443 321.639 292.346 321.506 292.22C321.366 292.094 321.412 291.947 321.644 291.778L321.553 291.767C320.894 291.879 320.211 291.95 319.506 291.978C318.798 292.008 318.129 291.986 317.501 291.912C316.716 291.819 316.31 291.668 316.282 291.458C316.251 291.25 316.73 290.988 317.72 290.671L323.353 288.872L324.701 289.031L319.068 290.831C318.447 291.029 318.181 291.192 318.268 291.319C318.356 291.446 318.639 291.538 319.119 291.595C319.736 291.668 320.393 291.667 321.09 291.593C321.783 291.519 322.402 291.396 322.946 291.222L328.426 289.472L329.797 289.634L324.033 291.475C323.554 291.628 323.33 291.77 323.362 291.902C323.39 292.035 323.659 292.131 324.169 292.191C324.519 292.233 324.936 292.243 325.42 292.222C325.9 292.2 326.392 292.15 326.897 292.07C327.394 291.991 327.848 291.886 328.261 291.754L333.522 290.074L334.87 290.233ZM323.49 287.507C323.719 287.534 323.904 287.564 324.047 287.597C324.193 287.628 324.284 287.654 324.319 287.672L322.837 287.996C322.59 287.931 322.33 287.888 322.056 287.865C321.783 287.842 321.453 287.85 321.065 287.889C320.677 287.927 320.187 288.004 319.596 288.121L318.687 288.301L313.471 291.387L312.009 291.215L316.294 288.786L316.202 288.775L307.073 290.631L305.611 290.458L318.98 287.818C319.582 287.699 320.149 287.608 320.682 287.547C321.218 287.484 321.719 287.45 322.185 287.444C322.648 287.438 323.083 287.459 323.49 287.507ZM300.016 289.797L301.111 289.447L305.659 289.984L304.563 290.334L300.016 289.797ZM301.221 290.822L299.873 290.663L307.895 288.1C308.26 287.983 308.479 287.889 308.551 287.818C308.616 287.747 308.592 287.692 308.479 287.651C308.358 287.611 308.199 287.58 308.001 287.556C307.852 287.539 307.723 287.527 307.613 287.52C307.5 287.515 307.409 287.51 307.341 287.507L308.228 287.104C308.353 287.104 308.513 287.108 308.71 287.117C308.91 287.125 309.136 287.144 309.387 287.173C309.768 287.218 310.063 287.288 310.271 287.381C310.476 287.474 310.537 287.586 310.456 287.717C310.371 287.848 310.083 287.991 309.594 288.147L301.221 290.822ZM299.804 288.304L304.867 286.687L306.216 286.846L294.994 290.431L293.645 290.272L297.766 288.956L297.652 288.942C297.011 289.057 296.358 289.13 295.691 289.164C295.016 289.197 294.334 289.173 293.645 289.092C293.047 289.021 292.639 288.923 292.419 288.796C292.196 288.671 292.197 288.518 292.421 288.338C292.637 288.159 293.107 287.954 293.83 287.723L299.178 286.015L300.526 286.174L295.266 287.854C294.597 288.068 294.261 288.254 294.258 288.414C294.247 288.574 294.559 288.692 295.195 288.767C295.637 288.819 296.123 288.837 296.652 288.821C297.177 288.805 297.713 288.754 298.258 288.668C298.799 288.582 299.315 288.461 299.804 288.304ZM293.322 285.246C294.114 285.339 294.629 285.479 294.865 285.665C295.097 285.851 295.056 286.068 294.741 286.315C294.422 286.562 293.828 286.824 292.958 287.102C292.082 287.382 291.151 287.607 290.165 287.777C289.176 287.946 288.204 288.053 287.248 288.098C286.289 288.143 285.413 288.119 284.621 288.025C283.829 287.932 283.316 287.792 283.084 287.606C282.848 287.42 282.891 287.203 283.213 286.955C283.532 286.706 284.13 286.442 285.006 286.162C285.876 285.884 286.803 285.661 287.789 285.493C288.77 285.325 289.741 285.218 290.7 285.173C291.656 285.128 292.53 285.152 293.322 285.246ZM292.161 285.617C291.559 285.546 290.916 285.534 290.231 285.583C289.547 285.632 288.871 285.722 288.202 285.854C287.533 285.986 286.917 286.142 286.355 286.321C285.792 286.501 285.361 286.68 285.062 286.857C284.763 287.034 284.658 287.194 284.746 287.335C284.835 287.477 285.181 287.583 285.782 287.654C286.384 287.725 287.029 287.736 287.717 287.686C288.405 287.636 289.085 287.545 289.758 287.412C290.43 287.279 291.048 287.122 291.61 286.943C292.173 286.763 292.602 286.585 292.897 286.409C293.193 286.233 293.294 286.075 293.202 285.934C293.109 285.794 292.762 285.688 292.161 285.617ZM274.543 288.014L285.765 284.429L287.113 284.589L275.891 288.173L274.543 288.014ZM350.532 283.67C351.324 283.764 351.838 283.904 352.075 284.09C352.307 284.276 352.266 284.492 351.951 284.739C351.632 284.986 351.038 285.249 350.168 285.526C349.291 285.806 348.36 286.031 347.375 286.201C346.386 286.37 345.414 286.478 344.458 286.523C343.498 286.568 342.623 286.543 341.831 286.45C341.038 286.356 340.526 286.216 340.294 286.031C340.057 285.844 340.101 285.627 340.423 285.379C340.742 285.131 341.34 284.867 342.216 284.586C343.086 284.309 344.013 284.086 344.998 283.918C345.98 283.749 346.951 283.642 347.91 283.598C348.866 283.552 349.74 283.577 350.532 283.67ZM349.37 284.041C348.769 283.97 348.126 283.959 347.441 284.007C346.757 284.056 346.08 284.146 345.411 284.278C344.743 284.41 344.127 284.566 343.564 284.746C343.002 284.926 342.571 285.104 342.272 285.281C341.972 285.459 341.867 285.618 341.956 285.76C342.045 285.901 342.39 286.008 342.992 286.079C343.594 286.15 344.239 286.16 344.927 286.111C345.615 286.061 346.295 285.969 346.967 285.836C347.64 285.703 348.257 285.547 348.82 285.367C349.383 285.187 349.812 285.009 350.107 284.833C350.403 284.657 350.504 284.499 350.412 284.359C350.319 284.218 349.972 284.112 349.37 284.041ZM344.113 281.53C344.764 281.607 345.243 281.699 345.551 281.806C345.862 281.911 346.044 282.024 346.097 282.144C346.15 282.262 346.122 282.378 346.012 282.493L344.215 282.597C344.247 282.534 344.268 282.46 344.278 282.375C344.293 282.288 344.211 282.203 344.033 282.118C343.856 282.031 343.502 281.957 342.973 281.894C342.264 281.81 341.516 281.794 340.726 281.844C339.936 281.895 339.191 282.032 338.489 282.256L336.78 282.802L336.894 282.816C337.147 282.779 337.477 282.735 337.887 282.684C338.289 282.634 338.747 282.601 339.261 282.585C339.768 282.57 340.307 282.596 340.878 282.663C341.586 282.747 342.062 282.874 342.304 283.043C342.542 283.212 342.518 283.414 342.232 283.648C341.942 283.883 341.359 284.14 340.482 284.42C339.62 284.695 338.711 284.916 337.756 285.083C336.797 285.251 335.86 285.358 334.946 285.403C334.028 285.45 333.199 285.43 332.461 285.342C331.889 285.275 331.527 285.192 331.375 285.094C331.215 284.997 331.161 284.901 331.212 284.806C331.255 284.712 331.301 284.636 331.348 284.578L331.211 284.561L329.874 284.989L328.571 284.835L337.229 282.069C337.952 281.838 338.712 281.67 339.508 281.566C340.303 281.46 341.094 281.408 341.881 281.408C342.668 281.407 343.412 281.447 344.113 281.53ZM339.534 283.013C338.993 282.949 338.417 282.933 337.806 282.965C337.196 282.996 336.57 283.072 335.931 283.191C335.291 283.311 334.66 283.47 334.039 283.668C333.433 283.862 332.993 284.044 332.719 284.215C332.446 284.385 332.364 284.535 332.474 284.663C332.585 284.791 332.914 284.887 333.462 284.952C334.034 285.02 334.648 285.032 335.307 284.988C335.961 284.944 336.618 284.858 337.276 284.732C337.93 284.604 338.542 284.45 339.112 284.268C339.696 284.081 340.118 283.904 340.377 283.738C340.628 283.573 340.693 283.427 340.572 283.301C340.443 283.176 340.097 283.079 339.534 283.013ZM336.808 280.743C337.036 280.77 337.222 280.8 337.364 280.833C337.511 280.865 337.601 280.89 337.637 280.909L336.155 281.232C335.907 281.168 335.647 281.124 335.374 281.102C335.101 281.079 334.77 281.087 334.382 281.126C333.994 281.163 333.505 281.24 332.914 281.357L332.005 281.538L326.789 284.624L325.327 284.451L329.611 282.022L329.52 282.011L320.391 283.868L318.929 283.695L332.297 281.054C332.899 280.935 333.467 280.845 333.999 280.783C334.535 280.72 335.037 280.686 335.503 280.68C335.965 280.674 336.4 280.695 336.808 280.743Z" fill="#B1CBDB"/>
</svg>
